{"glyphs":{"0":{"ha":1364,"x_min":0,"x_max":1364,"o":"m 581 1813 l 610 1807 q 633 1813 613 1807 q 794 1732 718 1801 q 892 1646 848 1646 q 979 1525 964 1599 q 1053 1438 979 1502 q 1208 1283 1053 1395 q 1335 1024 1285 1215 q 1347 932 1335 947 l 1341 863 q 1358 639 1341 825 q 1335 553 1358 624 q 1364 472 1347 532 l 1347 380 q 1358 322 1354 370 q 1318 138 1343 180 l 1324 127 l 1324 81 q 1197 -196 1324 -43 q 1099 -299 1187 -196 q 1007 -374 1007 -319 q 926 -449 926 -422 q 806 -495 842 -495 q 685 -414 685 -463 q 650 -363 650 -373 q 524 -409 535 -409 q 403 -328 429 -383 q 340 -264 368 -264 q 167 -46 262 -208 q 109 92 155 54 q 5 391 5 171 q 12 593 12 541 l 17 604 q 12 610 17 610 l 17 662 l 0 829 q 5 886 0 836 q 0 932 5 891 q 115 1387 70 1387 q 208 1479 115 1426 q 241 1525 241 1479 q 449 1750 279 1619 q 581 1813 524 1813 m 299 1352 q 241 1375 259 1375 q 155 1208 204 1375 q 109 909 109 975 q 115 886 109 897 q 109 840 109 854 q 127 679 109 767 q 115 328 115 524 l 121 328 l 115 317 q 190 167 136 182 q 317 63 220 102 l 317 46 l 288 52 l 259 52 l 253 28 q 271 12 262 28 l 271 -18 q 368 -155 277 -18 q 386 -173 376 -155 q 489 -69 425 -173 q 547 -121 505 -121 l 576 -115 q 662 -259 576 -145 l 679 -259 q 760 -184 686 -259 q 817 -92 787 -184 l 812 -69 l 823 35 q 857 -81 833 35 l 869 -86 l 886 -86 q 1070 167 1070 105 q 1076 224 1076 197 l 1070 264 q 1105 449 1093 307 l 1105 454 q 1099 518 1105 479 q 1105 541 1105 528 l 1099 576 q 1116 598 1116 576 q 1030 633 1116 627 l 1025 644 q 1105 754 1105 688 q 1111 771 1111 754 l 1088 990 l 1093 1019 q 1047 1249 1093 1182 q 886 1410 1047 1293 q 869 1416 875 1416 l 800 1410 l 800 1421 q 834 1456 800 1426 l 834 1468 q 748 1571 834 1492 q 644 1704 748 1665 l 581 1704 q 357 1519 529 1699 q 305 1352 322 1435 l 299 1352 m 576 1059 l 587 1059 q 696 903 621 1039 q 685 748 685 845 q 702 639 702 661 l 696 598 l 725 507 l 725 500 q 644 391 725 450 q 604 340 614 340 q 558 386 604 363 l 558 403 q 512 547 558 547 q 466 553 490 553 l 454 553 l 454 558 q 530 604 460 574 q 535 627 535 614 q 530 650 535 640 l 535 662 q 507 898 518 848 q 576 1059 576 1019 z "},"1":{"ha":1203,"x_min":0,"x_max":1203,"o":"m 846 1778 q 979 1704 913 1778 q 1002 1651 991 1688 q 1128 1554 1128 1611 q 1145 1508 1136 1554 q 1139 1473 1139 1478 q 1197 1076 1180 1359 q 1168 956 1197 1057 q 1203 495 1187 956 l 1203 380 q 1151 92 1203 185 q 1134 35 1142 73 q 1139 28 1134 28 l 1134 -6 l 1139 -86 q 1065 -248 1132 -127 q 875 -460 1065 -460 q 834 -449 857 -460 l 829 -460 q 760 -656 829 -612 l 679 -685 q 553 -558 553 -656 q 437 -500 468 -538 q 403 -374 420 -471 q 409 -357 409 -363 q 380 -196 386 -258 q 386 -69 386 -109 l 391 -69 q 386 -63 391 -63 q 391 -6 386 -36 q 386 190 386 105 l 386 236 q 391 259 386 249 q 386 282 386 269 l 386 288 q 374 472 374 458 l 374 495 q 322 512 322 505 l 259 489 q 144 593 144 506 q 138 621 138 593 l 132 621 q 0 731 17 621 q 144 1105 0 806 q 363 1433 266 1248 q 535 1663 431 1498 q 633 1709 585 1700 q 685 1692 685 1699 q 846 1778 814 1778 m 679 1565 q 633 1600 673 1565 q 507 1433 608 1591 q 334 1168 414 1332 q 109 736 189 1028 l 109 725 l 115 725 q 334 898 163 736 q 397 949 345 917 l 403 949 q 213 743 213 760 l 236 731 q 530 903 281 731 l 553 909 l 553 903 q 507 863 553 875 q 484 466 495 863 q 477 426 477 466 q 495 224 495 410 l 495 86 q 489 -231 495 -30 q 518 -351 510 -347 l 512 -363 q 535 -444 516 -444 l 547 -444 q 587 -271 587 -444 q 633 -213 591 -232 q 656 -144 656 -155 l 644 -115 q 662 155 662 59 l 673 155 l 679 86 l 679 75 q 673 -18 679 41 q 679 -35 679 -28 l 673 -63 q 743 -224 689 -224 q 823 -98 823 -224 q 892 46 838 -42 q 886 121 892 50 q 944 340 886 212 q 956 564 956 422 q 938 829 956 829 l 944 857 q 898 1111 944 1111 l 898 1122 q 949 1225 949 1122 q 892 1611 926 1469 l 892 1617 l 898 1640 l 857 1669 q 731 1594 840 1669 q 679 1565 699 1594 z "},"2":{"ha":1496,"x_min":0,"x_max":1496,"o":"m 852 1750 q 1145 1606 953 1750 q 1278 1491 1148 1568 q 1329 1375 1319 1388 q 1439 1272 1417 1337 q 1473 1180 1456 1235 l 1468 1151 q 1473 1093 1473 1101 q 1444 880 1458 1069 q 1439 869 1439 880 q 1451 823 1451 848 l 1451 748 q 1249 449 1371 449 l 1249 443 q 1283 380 1265 420 q 1404 288 1404 345 q 1439 81 1439 245 q 1416 12 1439 57 l 1421 -46 l 1421 -109 q 1496 -264 1496 -195 q 1410 -386 1466 -386 q 1312 -420 1410 -401 q 1128 -368 1262 -420 q 979 -397 1049 -397 l 898 -391 q 766 -444 881 -391 l 731 -449 l 725 -449 q 512 -409 601 -432 q 409 -495 473 -495 q 386 -507 409 -502 q 264 -432 264 -477 q 218 -368 241 -368 q 86 -144 110 -368 q 81 -69 81 -73 l 86 0 q 81 46 86 5 l 127 282 q 115 340 115 331 q 155 431 115 389 l 150 460 q 282 667 150 542 q 241 736 266 736 q 155 783 185 750 q 104 961 127 816 q 58 1105 58 1023 q 63 1151 58 1119 q 0 1301 0 1239 q 208 1508 0 1401 q 702 1721 379 1637 l 731 1715 l 748 1715 q 852 1750 810 1750 m 748 1583 q 708 1611 743 1583 q 127 1329 456 1565 l 109 1306 l 109 1301 q 201 1180 109 1234 q 161 1105 161 1134 q 218 984 161 1052 q 248 846 218 846 l 299 846 q 334 915 307 853 q 530 1042 522 1042 q 587 1019 570 1019 l 610 1019 q 708 1111 630 1025 l 713 1111 q 760 1105 755 1105 l 760 1088 q 599 880 663 934 q 507 800 579 852 l 507 794 q 530 760 507 789 q 403 662 405 679 q 317 553 403 637 q 259 460 259 484 q 288 380 259 447 q 224 351 224 367 l 224 334 q 264 241 224 307 q 218 224 233 224 l 218 218 q 190 35 218 197 l 190 23 q 196 -6 190 3 l 190 -40 l 190 -69 q 241 -264 190 -264 l 248 -264 q 311 -190 256 -264 q 454 -58 359 -136 l 454 -63 q 397 -155 397 -126 l 397 -167 q 593 -213 397 -186 l 720 -161 q 771 -155 751 -155 l 800 -155 q 857 -161 827 -155 q 996 -127 911 -161 q 1185 -184 1118 -184 q 1243 -144 1237 -162 l 1243 -109 q 1168 -40 1230 -81 q 1174 75 1174 37 l 1174 109 q 1099 144 1147 144 q 1180 178 1099 167 q 1192 213 1192 197 q 1128 397 1192 397 q 892 351 1089 397 q 679 288 743 351 l 673 288 q 800 443 745 360 q 834 495 834 463 q 829 547 829 519 q 990 656 897 564 q 1047 713 1036 673 l 1099 789 l 1105 760 l 1105 679 q 1203 875 1173 764 l 1197 898 q 1203 926 1203 907 l 1197 926 l 1203 938 l 1203 944 q 1192 996 1203 958 q 1220 1237 1208 1111 l 1220 1301 q 1059 1433 1220 1396 l 1053 1433 l 1053 1438 q 1070 1479 1070 1460 l 1070 1496 q 979 1588 1070 1552 q 840 1640 911 1640 q 748 1583 805 1635 z "},"3":{"ha":1439,"x_min":0,"x_max":1439,"o":"m 812 1750 q 972 1681 896 1750 q 1065 1617 1004 1617 q 1243 1468 1145 1586 q 1387 1329 1341 1426 l 1421 1225 q 1398 921 1421 1160 l 1398 834 q 1289 713 1398 741 q 1255 679 1281 713 l 1255 673 q 1358 621 1255 663 q 1439 351 1410 538 l 1439 305 q 1364 17 1394 59 l 1370 -18 q 1249 -236 1370 -121 q 1197 -409 1226 -329 q 1093 -444 1135 -444 q 984 -391 1054 -439 q 886 -414 930 -414 l 846 -414 q 622 -489 846 -444 l 622 -495 q 414 -403 571 -495 q 173 -259 200 -403 q 46 -173 114 -259 q 35 -115 35 -130 q 75 17 35 -90 q 109 150 90 117 l 92 248 q 282 403 92 342 q 155 627 155 543 q 98 713 124 627 q 161 852 109 784 q 58 996 58 876 q 75 1122 58 1019 q 17 1220 17 1167 l 23 1255 q 0 1318 12 1272 q 253 1554 0 1419 q 334 1571 317 1571 q 351 1565 345 1565 q 812 1750 437 1647 m 397 1468 l 397 1461 l 403 1450 q 380 1438 389 1438 q 328 1461 345 1461 q 109 1318 250 1461 q 155 1289 124 1289 l 184 1289 l 196 1295 l 196 1289 l 127 1225 l 127 1220 q 161 1192 127 1211 l 196 1192 q 299 1243 269 1243 l 299 1237 q 196 1145 299 1173 q 167 996 167 1076 l 167 967 q 178 956 169 956 l 201 956 q 368 1065 289 1008 q 564 1116 438 1065 l 564 1111 q 391 915 564 1038 q 264 817 313 891 q 208 713 208 737 q 241 696 220 713 l 248 696 q 363 731 345 731 l 368 731 q 276 673 363 711 q 264 616 264 625 q 380 477 329 477 l 431 477 q 593 553 474 477 q 713 431 648 526 q 576 253 692 372 q 340 311 576 283 q 201 253 325 311 l 201 230 q 248 98 201 209 q 184 35 184 98 q 144 -98 184 -39 l 138 -121 q 218 -161 175 -161 l 236 -161 q 241 -155 241 -161 q 391 -219 352 -172 q 472 -253 448 -253 l 484 -253 q 518 -236 506 -236 l 547 -241 q 673 -173 588 -241 l 702 -178 l 754 -178 q 812 -155 812 -172 l 812 -138 l 817 -69 l 823 -69 q 956 -208 904 -162 l 967 -208 q 996 -104 979 -208 q 1105 46 1020 -25 l 1116 86 l 1116 115 q 1105 184 1116 144 q 1162 299 1162 210 l 1192 443 q 1116 673 1170 673 q 956 771 1067 680 q 1053 903 969 827 q 1111 949 1082 949 q 1151 961 1151 949 l 1151 1065 q 1174 1341 1174 1289 q 1047 1508 1174 1421 q 984 1525 1003 1525 q 972 1508 984 1508 q 909 1588 909 1545 q 806 1640 880 1640 q 414 1485 534 1563 q 397 1468 397 1472 z "},"4":{"ha":1548,"x_min":0,"x_max":1548,"o":"m 1059 1842 q 1192 1732 1143 1842 q 1289 1686 1217 1710 q 1358 1554 1355 1579 q 1387 1502 1358 1518 q 1421 1416 1404 1470 q 1278 1111 1374 1222 q 1122 909 1198 1020 l 1192 915 l 1266 915 q 1398 829 1398 905 q 1410 789 1410 829 l 1428 789 q 1548 673 1533 789 l 1548 662 q 1508 564 1548 611 q 1542 351 1542 380 q 1531 322 1542 322 q 1542 276 1542 301 q 1433 127 1542 149 q 1364 69 1364 113 q 1278 12 1364 40 l 1255 5 l 1162 40 l 1162 35 q 1174 -184 1174 -12 l 1174 -196 q 1047 -426 1174 -397 q 961 -553 1010 -553 q 863 -599 961 -586 q 754 -547 777 -574 q 736 -553 743 -553 q 581 -420 623 -553 q 454 -317 507 -420 l 431 -144 q 409 52 416 52 q 322 23 355 23 q 224 63 274 23 q 178 150 196 150 q 17 437 56 150 q 58 650 17 488 q 0 823 20 650 q 201 1122 0 947 q 276 1243 212 1122 q 512 1519 450 1457 q 743 1778 568 1609 q 823 1813 762 1805 q 915 1767 866 1813 q 1059 1842 1017 1842 m 852 1588 l 846 1600 l 846 1663 q 823 1704 846 1694 l 817 1704 q 639 1508 639 1525 q 317 1088 317 1143 q 328 1053 328 1069 q 109 852 229 1053 l 109 811 q 127 725 109 752 l 167 731 l 190 731 q 208 713 198 731 q 121 431 121 523 q 173 259 132 370 l 190 259 l 409 363 q 524 351 524 359 q 530 345 524 345 q 524 259 524 288 l 524 138 q 530 92 524 115 l 524 58 q 553 -231 524 -36 l 553 -264 q 587 -317 553 -296 l 593 -317 q 610 -282 610 -311 l 610 -219 l 616 -178 l 622 -178 q 736 -363 657 -363 q 789 -322 753 -322 q 834 -104 817 -253 q 829 -58 834 -98 q 834 35 834 1 l 846 35 q 892 -190 877 -190 l 903 -190 q 926 -52 926 -138 q 909 334 909 284 q 938 368 921 365 q 949 363 949 368 l 990 368 l 1002 368 q 1076 282 1062 368 q 1122 248 1096 248 q 1162 345 1131 248 q 1226 357 1218 357 q 1243 345 1243 351 q 1295 380 1288 359 l 1295 391 q 1283 431 1295 431 q 1289 495 1289 471 q 1255 679 1270 679 q 1215 708 1217 694 q 1301 783 1230 708 l 1301 806 l 1042 806 q 1036 800 1036 806 l 1025 806 q 702 789 714 789 q 667 800 667 793 q 823 1007 671 830 q 829 1030 829 1017 q 800 1076 827 1040 l 800 1082 q 921 1139 921 1116 q 1105 1370 983 1230 q 1168 1531 1168 1501 l 1168 1554 l 1162 1554 q 1070 1468 1141 1548 q 1042 1456 1052 1456 l 1042 1461 q 1116 1657 1116 1617 q 1076 1692 1103 1692 l 1076 1721 q 1065 1732 1076 1732 l 1053 1732 q 852 1588 907 1638 z "},"5":{"ha":1479,"x_min":0,"x_max":1479,"o":"m 1093 1761 q 1243 1692 1181 1746 q 1329 1606 1290 1606 q 1428 1468 1428 1554 l 1428 1461 q 1370 1324 1428 1417 q 1444 1157 1417 1257 l 1439 1128 l 1444 1088 q 1347 892 1423 892 q 1301 875 1301 878 l 1289 880 l 1272 880 l 1272 863 q 1370 811 1272 857 q 1428 690 1410 768 l 1421 662 q 1479 81 1455 662 q 1381 -248 1479 -77 q 1128 -351 1238 -351 q 1059 -374 1128 -364 q 1025 -368 1055 -374 q 834 -449 863 -449 q 817 -444 828 -449 l 777 -449 l 679 -426 q 547 -495 627 -478 l 541 -495 q 357 -368 357 -441 q 299 -328 349 -351 q 190 -196 190 -236 q 40 5 40 -125 q 75 144 40 57 q 35 271 35 253 q 92 368 35 325 q 23 610 69 498 q 28 748 28 691 l 28 771 l 23 806 q 28 811 23 811 q 0 921 23 862 l 12 961 l 5 1002 q 23 1283 23 1244 l 17 1341 q 294 1594 17 1461 q 426 1640 371 1640 q 530 1606 488 1629 q 806 1692 530 1649 q 1059 1750 902 1750 q 1093 1761 1059 1755 m 731 1571 l 731 1577 q 553 1496 625 1557 l 535 1496 q 420 1537 511 1496 q 144 1381 310 1496 q 127 1341 127 1360 l 127 1237 q 109 1002 127 1099 l 138 956 q 109 926 132 956 q 132 863 132 892 q 138 690 132 814 q 127 627 138 683 q 190 403 167 560 l 201 397 l 224 397 q 357 541 271 436 q 443 466 412 466 l 484 466 q 604 541 581 466 l 633 564 q 794 500 794 530 q 599 218 784 417 l 593 218 q 144 276 498 276 l 144 271 q 190 115 180 174 q 144 -12 163 115 q 253 -104 195 -104 q 328 -219 300 -151 q 409 -259 385 -259 q 512 -167 422 -259 q 633 -213 572 -196 l 662 -208 l 690 -208 q 696 -213 696 -208 q 921 -86 882 -137 l 915 -127 l 915 -138 l 1070 -98 q 1145 -58 1082 -84 q 1226 207 1226 22 q 1232 218 1232 207 q 1180 771 1204 771 q 1128 875 1180 844 q 932 972 1050 875 q 892 990 903 990 q 736 938 848 990 l 702 944 l 696 944 l 644 898 l 639 898 l 650 996 l 639 1065 q 794 1122 662 1065 q 857 1093 837 1093 l 926 1093 q 990 1128 943 1093 q 1076 1139 1044 1139 l 1099 1139 q 1151 1116 1130 1116 l 1168 1116 q 1192 1174 1184 1116 l 1192 1289 q 1139 1387 1192 1313 q 1122 1416 1135 1416 l 1116 1416 q 1076 1398 1095 1398 q 1180 1588 1180 1573 l 1180 1600 q 1099 1651 1160 1632 q 898 1611 898 1630 q 731 1571 769 1571 z "},"6":{"ha":1479,"x_min":0,"x_max":1479,"o":"m 1002 1738 q 1128 1657 1065 1738 q 1266 1537 1158 1657 q 1370 1438 1334 1512 q 1428 1203 1398 1362 q 1473 1024 1473 1136 q 1479 1002 1479 1024 q 1381 840 1447 840 q 1318 748 1341 840 q 1312 731 1312 748 q 1416 610 1416 682 q 1456 311 1456 516 q 1439 248 1439 267 q 1451 173 1451 195 q 1444 155 1451 166 l 1451 121 l 1451 109 q 1364 -161 1442 -14 q 1220 -351 1337 -188 q 1059 -403 1128 -399 l 1019 -397 q 829 -454 897 -454 q 760 -444 792 -444 q 662 -535 734 -535 q 633 -541 662 -541 q 454 -426 454 -482 q 368 -357 435 -384 q 276 -219 309 -302 l 144 -98 l 75 0 q 58 92 58 73 q 69 155 58 102 q 0 340 26 191 q 28 489 28 481 q 17 558 24 505 q 28 604 21 604 q 17 673 22 658 q 40 789 23 690 q 28 852 28 842 q 132 1306 28 886 q 224 1428 164 1428 q 472 1600 224 1514 q 604 1651 472 1623 q 639 1640 639 1647 q 817 1692 665 1669 q 1002 1738 951 1738 m 667 1525 q 604 1542 629 1542 q 472 1485 573 1542 q 328 1404 336 1436 l 334 1375 q 236 1295 237 1321 q 138 886 236 1267 l 138 852 q 155 771 138 816 q 127 685 134 736 q 132 616 132 625 l 127 558 q 132 460 132 498 q 109 328 109 353 q 184 155 109 290 q 167 92 167 117 l 167 69 q 282 -81 167 24 q 363 -127 307 -100 q 449 -276 405 -276 q 507 -305 449 -291 l 512 -305 q 553 -155 512 -282 l 564 -81 l 570 -81 q 604 -132 604 -102 q 599 -173 599 -155 q 679 -213 655 -213 l 708 -213 q 852 -150 791 -213 q 915 -167 906 -167 q 1053 -69 1011 -167 q 1180 132 1180 81 q 1203 224 1203 205 q 1192 276 1199 276 q 1203 311 1203 295 l 1203 322 q 1162 357 1180 357 l 1162 363 q 1208 437 1185 391 q 1197 530 1201 515 q 1203 547 1203 541 q 1122 766 1203 728 q 996 800 1019 800 q 961 771 961 780 q 789 800 830 800 q 708 754 770 800 q 564 667 643 718 l 558 667 l 558 736 q 644 909 558 840 q 736 1053 722 1044 q 812 944 790 1053 q 869 880 841 899 l 898 880 q 949 949 949 894 l 949 990 l 956 990 q 1036 938 985 990 q 1053 921 1053 938 l 1053 915 l 1070 915 q 1116 1030 1088 915 q 1134 1065 1128 1032 l 1145 1059 l 1197 1059 q 1232 1128 1216 1059 q 1185 1301 1220 1255 q 1111 1548 1139 1548 q 1002 1634 1050 1573 l 771 1571 q 667 1525 709 1571 m 789 426 l 794 414 q 679 276 755 276 l 662 276 q 789 426 677 338 z "},"7":{"ha":1686,"x_min":0,"x_max":1686,"o":"m 1220 1773 q 1289 1761 1271 1761 q 1335 1773 1306 1761 q 1479 1704 1405 1773 q 1508 1640 1496 1678 q 1623 1565 1623 1609 q 1652 1502 1636 1553 l 1646 1468 q 1669 1381 1646 1453 l 1646 1312 q 1686 1203 1664 1281 q 1537 760 1619 945 l 1451 650 l 1439 633 l 1444 604 q 1289 236 1444 564 q 1168 28 1216 77 q 1134 -52 1134 -35 l 1134 -127 q 1019 -420 1134 -231 q 857 -460 993 -444 q 766 -409 766 -439 l 760 -409 q 685 -432 718 -426 q 639 -420 664 -420 q 420 -576 503 -576 q 322 -495 322 -554 q 311 -454 313 -495 l 311 -449 l 317 -437 l 305 -444 l 299 -444 q 184 -380 216 -444 q 173 -340 184 -340 q 282 -35 173 -321 q 431 524 397 488 q 484 627 460 524 q 535 748 526 735 l 535 760 q 449 748 521 760 q 253 817 275 748 q 230 886 241 834 q 92 1047 92 886 q 104 1111 92 1058 q 75 1215 82 1215 q 0 1335 0 1257 q 173 1479 0 1423 q 472 1617 229 1530 l 500 1617 q 564 1606 553 1606 q 996 1732 587 1606 q 1220 1773 1181 1773 m 570 1496 q 489 1514 563 1496 q 190 1370 279 1430 q 104 1324 104 1335 l 138 1301 q 391 1370 206 1301 l 397 1370 l 397 1364 q 311 1289 373 1364 q 196 1203 206 1227 l 196 1162 l 305 1162 l 305 1151 q 201 1059 201 1114 l 201 1007 q 218 990 201 999 l 259 990 q 305 984 283 990 q 690 1076 532 1023 q 748 1082 721 1082 l 748 1076 l 650 754 q 576 547 576 584 l 599 547 l 599 524 q 535 466 583 524 q 466 276 497 466 q 311 -264 378 -96 q 282 -340 282 -312 l 288 -340 q 507 -109 474 -176 q 581 -29 574 -29 l 581 -35 l 530 -173 l 547 -196 q 713 -69 601 -196 q 720 -81 713 -81 l 713 -121 l 713 -213 q 725 -224 715 -224 q 812 -196 812 -215 q 886 5 886 -73 l 886 17 q 880 98 886 49 q 990 282 946 238 q 1192 725 1152 600 l 1192 754 q 1151 777 1151 766 q 1260 886 1151 784 q 1312 961 1260 895 q 1433 1335 1433 1251 q 1347 1428 1410 1428 q 1329 1433 1347 1433 q 1416 1491 1337 1461 l 1416 1496 q 1393 1588 1416 1550 l 1404 1629 q 1341 1663 1367 1663 l 1335 1663 q 1289 1646 1318 1663 q 1220 1669 1232 1657 q 656 1519 977 1627 q 570 1496 583 1502 z "},"8":{"ha":1439,"x_min":0,"x_max":1439,"o":"m 840 1819 q 1019 1744 935 1819 q 1076 1669 1065 1669 q 1174 1594 1174 1636 q 1335 1410 1208 1516 q 1416 1266 1416 1377 l 1416 1128 l 1439 949 q 1312 673 1385 742 q 1433 351 1393 646 q 1404 86 1410 197 q 1393 52 1393 86 q 1416 -40 1416 -3 q 1329 -231 1416 -68 q 1197 -357 1301 -302 q 1002 -426 1137 -374 q 944 -409 956 -409 q 840 -444 875 -444 l 834 -444 q 754 -437 803 -444 q 581 -495 637 -495 q 345 -403 391 -439 q 276 -311 313 -370 q 69 -58 199 -296 q 0 230 35 -58 l 0 241 q 17 351 2 333 l 12 374 q 23 477 12 429 l 5 535 q 115 690 5 601 q 40 938 40 792 q 28 961 36 938 l 35 972 q 23 1042 23 1013 l 23 1139 q 127 1508 23 1244 q 253 1588 191 1588 q 322 1577 263 1583 q 524 1715 457 1715 q 667 1784 595 1784 l 720 1778 q 840 1819 802 1819 m 736 1669 q 673 1674 697 1674 l 644 1674 q 500 1600 564 1609 q 334 1468 368 1468 q 241 1479 258 1479 q 144 1225 194 1425 q 127 1122 132 1197 l 132 1122 l 127 1111 l 127 1030 q 161 990 161 993 l 138 967 q 155 921 138 953 l 150 880 q 196 760 163 808 q 299 696 226 730 l 299 690 q 115 541 240 669 l 115 524 q 132 518 121 524 q 127 357 127 518 q 213 282 193 310 l 208 282 q 109 311 121 311 l 109 190 q 138 35 121 177 l 132 23 q 253 -161 179 -13 l 311 -213 l 317 -201 l 317 -138 l 311 -109 q 374 -224 319 -117 q 443 -259 417 -259 l 460 -259 q 610 -190 486 -259 q 685 -208 638 -208 l 696 -208 q 800 -144 732 -208 q 852 -127 810 -144 q 857 -132 852 -132 l 852 -161 l 857 -184 l 863 -184 q 1082 -75 1049 -122 q 1168 98 1147 37 q 1111 161 1157 161 l 1088 155 l 1082 155 l 1082 161 q 1162 241 1110 161 l 1162 288 q 1180 437 1162 347 l 1174 437 q 1180 454 1180 448 q 1076 731 1175 704 q 1013 766 1072 731 l 1013 783 q 1059 857 1052 857 q 1174 1042 1174 940 q 1192 1093 1187 1042 q 1168 1249 1168 1220 l 1168 1416 q 1065 1496 1168 1430 q 938 1681 984 1584 q 834 1709 886 1709 q 736 1669 795 1702 m 644 1157 q 713 1088 652 1157 q 633 961 640 962 q 593 1059 606 1042 l 593 1065 q 639 1157 606 1078 l 644 1157 m 639 495 l 644 495 q 743 380 743 401 q 650 178 721 250 l 644 178 q 604 334 644 334 l 587 363 l 587 368 q 639 495 587 387 z "},"9":{"ha":1393,"x_min":0,"x_max":1393,"o":"m 736 1778 l 1053 1715 l 1053 1721 q 1197 1657 1160 1704 q 1226 1588 1219 1624 q 1352 1496 1352 1559 q 1370 1444 1362 1496 q 1358 1404 1370 1404 l 1370 1358 q 1312 1002 1329 1154 q 1381 789 1381 891 q 1375 673 1381 759 q 1381 408 1381 513 q 1341 282 1367 325 q 1393 144 1393 190 q 1295 -167 1393 -57 q 1208 -219 1218 -196 q 1053 -386 1208 -298 q 967 -409 985 -409 l 956 -409 q 875 -391 880 -391 q 650 -484 732 -475 l 644 -484 q 489 -414 586 -484 q 403 -437 420 -437 q 253 -374 340 -434 q 208 -317 253 -368 q 155 -271 208 -295 q 35 -6 35 -195 q 69 104 43 60 q 46 195 58 119 q 115 345 46 274 q 127 351 127 345 q 5 921 5 526 q 23 1013 14 986 q 0 1088 0 1062 q 69 1496 23 1382 q 236 1623 115 1558 q 386 1681 267 1657 l 460 1663 q 736 1778 531 1732 m 460 1542 q 380 1571 460 1567 q 161 1444 326 1571 q 109 1070 109 1240 q 161 1036 149 1036 l 161 1007 q 115 961 140 1007 q 259 386 115 433 l 271 386 q 334 477 311 386 l 340 477 q 431 437 391 437 l 489 472 q 593 518 528 472 l 599 507 l 599 340 q 443 259 555 294 q 253 224 380 241 q 173 253 248 224 q 155 207 155 224 l 155 178 q 190 115 155 148 l 161 40 q 144 5 144 35 l 144 -23 q 190 -150 144 -150 q 276 -201 210 -201 q 311 -178 281 -201 l 363 -178 q 386 -173 376 -178 q 495 -241 472 -241 l 524 -241 q 754 -98 645 -220 q 817 -173 754 -173 l 829 -173 q 979 -46 901 -173 q 1019 52 998 52 l 1025 28 l 1042 28 q 1145 230 1122 28 l 1145 276 q 1093 351 1145 311 q 1059 386 1090 386 l 1059 397 q 1134 547 1134 476 l 1134 570 q 1128 771 1134 598 l 1122 771 l 1128 783 l 1128 846 q 1134 903 1128 873 q 1099 1053 1122 1003 l 1093 1053 l 1070 1036 l 1065 1076 q 1116 1491 1065 1173 l 1116 1496 l 1111 1531 q 1122 1583 1122 1558 q 1059 1611 1089 1611 q 1025 1606 1029 1606 q 875 1640 949 1640 q 863 1629 875 1629 l 846 1629 q 748 1669 846 1662 q 466 1542 641 1669 l 460 1542 m 604 1151 l 616 1151 q 500 898 616 949 l 495 898 l 495 903 q 489 949 495 918 q 553 1093 514 1093 q 604 1151 553 1109 z "}," ":{"ha":555,"x_min":0,"x_max":0,"o":""},"!":{"ha":938,"x_min":0,"x_max":938,"o":"m 334 1842 q 426 1790 426 1821 q 472 1715 431 1790 q 576 1651 576 1697 l 604 1657 q 766 1531 705 1657 q 892 1428 892 1489 q 938 1208 938 1333 q 875 926 938 1150 l 869 898 q 915 633 915 805 q 829 397 877 397 q 748 317 829 382 q 789 288 755 317 q 857 167 857 261 q 696 -357 857 14 q 530 -432 600 -432 l 524 -432 q 460 -414 499 -432 q 374 -472 460 -443 l 351 -472 q 190 -340 245 -472 q 40 -178 106 -340 q 23 -58 23 -119 l 23 -46 q 115 305 23 182 q 40 518 40 380 q 12 806 28 553 q 23 852 23 835 q 0 956 0 910 q 104 1692 36 1588 q 196 1813 104 1783 l 248 1813 q 253 1807 253 1813 q 334 1842 282 1826 m 322 1681 q 334 1623 334 1628 q 305 1496 321 1496 q 218 1709 287 1709 l 213 1709 q 138 1370 138 1468 l 144 1370 l 104 967 l 104 956 q 161 823 104 916 q 121 806 140 806 q 184 386 144 386 l 224 374 l 241 374 q 294 466 260 374 l 317 484 q 368 368 317 368 l 374 368 q 477 484 421 395 q 530 530 486 484 q 667 766 667 606 l 662 794 l 662 857 q 616 996 662 951 q 685 1283 616 1021 l 690 1335 q 622 1548 690 1502 l 593 1548 l 593 1496 q 489 1525 509 1525 q 460 1496 460 1515 q 345 1732 440 1504 l 340 1732 q 322 1681 326 1732 m 259 178 q 218 230 227 230 l 196 230 q 127 -69 127 142 q 201 -236 127 -169 l 230 -236 q 305 -144 230 -208 q 386 -196 356 -196 q 518 -46 482 -196 q 610 317 610 173 l 576 317 l 558 305 l 553 305 l 547 357 l 541 357 q 472 322 527 343 q 259 178 329 191 z "},",":{"ha":949,"x_min":0,"x_max":949,"o":"m 639 570 q 771 454 732 570 q 903 340 903 414 q 932 115 928 340 q 949 23 932 106 q 926 -46 926 -37 q 938 -115 938 -86 q 915 -219 932 -187 l 921 -248 l 921 -259 q 743 -639 921 -395 q 535 -777 682 -736 l 524 -777 q 409 -690 409 -747 q 368 -639 390 -639 q 253 -495 275 -639 l 253 -454 q 213 -397 213 -416 q 184 -351 197 -351 q 52 -196 52 -302 q 0 173 0 -20 q 86 443 53 443 q 178 500 86 473 q 271 466 201 500 q 311 454 294 454 q 593 564 365 454 q 639 570 634 570 m 305 299 l 299 299 q 218 368 299 351 q 184 391 218 372 l 178 391 q 109 178 149 391 q 196 -248 125 -212 l 241 -248 q 276 -190 258 -190 l 288 -190 q 328 -236 288 -208 l 391 -236 q 357 -294 391 -242 l 357 -305 q 380 -541 357 -541 l 386 -541 q 564 -374 471 -528 q 667 -178 667 -220 q 690 40 667 -111 q 650 86 686 40 l 650 92 l 702 155 q 679 397 685 185 q 639 466 659 466 q 426 374 627 466 q 322 345 383 357 q 305 299 305 321 z "},".":{"ha":909,"x_min":0,"x_max":909,"o":"m 587 530 q 713 466 713 503 q 748 403 726 466 q 869 317 869 369 q 909 63 909 214 l 909 46 q 875 -69 909 13 l 892 -127 q 766 -420 853 -311 q 639 -484 728 -461 q 593 -472 628 -484 l 581 -477 q 500 -449 500 -458 q 386 -484 482 -462 q 340 -472 365 -472 q 271 -495 292 -495 q 167 -397 167 -481 q 98 -357 167 -357 q 5 -12 5 -357 q 0 5 5 -5 q 5 28 5 16 l 5 98 l 12 138 l 5 138 l 12 150 l 12 201 q 144 466 37 466 q 190 472 166 472 l 201 472 q 224 466 214 472 q 311 489 248 477 q 431 460 373 489 q 535 518 475 464 q 587 530 544 518 m 518 363 l 489 368 q 403 322 466 368 q 380 374 403 361 l 299 380 q 241 351 285 380 l 224 363 l 161 363 q 115 104 122 337 q 109 98 109 104 l 115 63 q 109 17 115 23 q 132 -259 116 -124 q 184 -219 140 -259 q 253 -241 241 -241 q 397 -167 311 -241 q 437 -236 397 -236 q 518 -241 486 -241 q 639 0 639 -117 l 639 23 q 610 92 610 55 q 662 178 662 102 q 622 408 652 408 q 593 420 622 418 l 581 420 q 518 363 577 420 z "},";":{"ha":1451,"x_min":0,"x_max":1451,"o":"m 1019 1157 q 1301 1053 1263 1157 q 1358 1002 1301 1011 q 1451 898 1418 1002 l 1451 875 q 1364 736 1412 736 q 1398 616 1398 644 q 1381 553 1381 563 l 1387 530 q 1301 374 1360 374 q 1082 317 1199 317 q 979 288 1040 288 l 863 288 q 644 248 798 288 l 639 248 q 633 253 633 248 q 340 167 523 209 l 311 173 q 253 167 260 167 q 155 264 155 191 q 144 299 144 264 l 138 299 q 132 294 132 299 q 0 449 25 294 q 40 547 24 547 q 28 616 28 587 l 28 627 q 52 720 28 677 q 35 789 46 730 q 46 852 46 838 q 28 926 28 892 q 150 1042 28 1024 q 276 1036 264 1036 q 576 1105 549 1059 q 639 1116 616 1116 q 708 1099 648 1116 q 944 1139 836 1139 q 1019 1157 955 1154 m 656 949 q 644 1007 650 964 l 622 1007 q 374 938 622 975 q 276 926 360 938 q 150 932 210 932 l 132 932 q 173 869 132 897 l 173 863 q 144 789 144 823 l 144 783 q 184 743 144 743 l 190 731 l 190 725 q 132 633 132 661 l 132 593 q 155 581 155 591 l 167 587 l 190 587 q 201 576 201 585 q 109 454 115 496 q 121 403 109 446 q 460 477 251 403 q 484 500 460 487 l 507 484 q 702 524 646 524 l 857 524 q 990 558 949 558 l 990 564 l 1002 558 q 1134 633 1134 577 l 1134 667 q 1105 679 1134 679 q 1151 766 1151 710 q 1065 800 1134 783 q 1128 903 1128 872 l 1128 909 q 1099 921 1099 909 q 1203 1019 1203 951 q 1019 1047 1168 1047 l 1002 1047 q 800 1019 959 1030 q 656 949 730 998 z "},"?":{"ha":1606,"x_min":0,"x_max":1606,"o":"m 1002 1813 q 1249 1663 1162 1813 q 1364 1571 1364 1619 l 1491 1381 q 1606 990 1561 1381 q 1531 811 1562 869 q 1381 708 1531 760 l 1347 708 q 1335 685 1347 699 q 1347 610 1347 633 q 1197 305 1324 305 l 1197 299 q 1312 161 1280 299 q 1208 -334 1248 -334 q 1070 -414 1168 -414 l 1042 -409 q 926 -460 1042 -442 q 857 -437 917 -460 q 708 -495 819 -460 q 604 -420 604 -468 q 570 -363 584 -363 q 443 -231 473 -363 q 414 63 426 -145 q 495 299 414 195 l 495 305 q 420 507 420 348 l 420 535 q 426 541 420 541 l 420 553 l 420 604 q 305 720 376 604 q 150 892 204 760 q 92 1042 96 967 q 109 1116 98 1086 q 52 1215 52 1149 q 12 1289 46 1247 q 0 1329 12 1329 q 155 1496 0 1411 q 535 1715 473 1715 l 570 1715 q 604 1709 600 1709 q 794 1778 706 1778 q 857 1767 847 1767 q 1002 1813 939 1813 m 869 1651 q 800 1669 817 1669 l 794 1669 q 622 1600 725 1669 q 564 1611 597 1600 q 236 1421 507 1611 q 109 1329 140 1369 l 138 1324 l 144 1324 q 230 1329 188 1329 q 236 1306 236 1319 l 236 1301 l 155 1249 l 155 1220 q 241 1162 197 1162 l 241 1151 q 201 1036 201 1108 q 248 938 201 998 q 334 823 248 893 l 345 823 q 414 915 361 823 q 472 1013 422 915 q 616 1099 519 1065 l 748 1065 q 673 990 748 1047 q 558 863 673 982 q 535 823 547 823 q 530 667 530 717 l 530 472 q 547 391 530 435 l 587 391 q 743 553 612 397 l 748 553 q 829 484 748 507 l 880 484 q 938 564 938 524 l 944 564 l 1036 530 q 1088 644 1070 547 q 1093 650 1093 644 l 1093 662 q 1099 748 1093 698 l 1076 834 q 1208 1002 1133 923 q 1238 1036 1230 1036 l 1238 1024 q 1226 949 1238 1002 l 1238 944 q 1318 1036 1296 966 q 1352 1122 1327 1036 l 1352 1128 q 1306 1404 1352 1225 l 1255 1444 q 1168 1583 1255 1462 q 1025 1704 1117 1704 l 984 1704 q 869 1651 967 1704 m 886 311 l 840 311 l 829 317 q 760 236 817 295 q 731 305 751 236 q 679 322 709 322 l 662 322 q 530 121 530 195 q 524 69 524 100 q 558 -253 524 -110 l 570 -253 q 662 -190 662 -235 q 685 -150 685 -159 l 690 -150 q 800 -224 754 -224 l 806 -224 q 834 -155 816 -224 q 909 -75 901 -77 l 915 -75 l 915 -161 q 926 -173 917 -173 l 956 -173 q 1059 299 1019 -173 q 990 334 1038 334 l 949 334 l 886 311 z "},"A":{"ha":1646,"x_min":0,"x_max":1646,"o":"m 604 1870 q 696 1819 652 1870 l 713 1778 l 725 1784 q 800 1767 790 1767 q 857 1807 831 1784 q 903 1819 903 1807 q 1013 1755 1013 1792 q 1047 1692 1033 1744 q 1162 1617 1162 1665 q 1220 1370 1202 1562 q 1266 1272 1220 1356 q 1324 1105 1324 1115 q 1318 1059 1324 1100 q 1387 811 1318 1021 q 1398 731 1387 790 q 1387 696 1387 707 q 1514 386 1439 696 q 1542 271 1524 386 q 1537 190 1537 199 q 1640 -167 1588 -24 l 1634 -190 q 1646 -299 1646 -287 q 1565 -403 1622 -403 q 1519 -420 1565 -406 l 1491 -414 q 1398 -444 1428 -444 l 1387 -444 q 1381 -437 1381 -444 q 1272 -484 1322 -479 q 1116 -403 1116 -445 q 1070 -340 1078 -340 q 944 -213 1010 -340 q 932 -184 932 -194 q 880 -196 895 -196 q 800 -178 806 -178 q 685 -363 762 -363 l 650 -368 q 581 -345 610 -368 q 466 -391 528 -373 q 334 -576 429 -463 q 248 -604 281 -604 q 144 -507 144 -591 q 138 -484 138 -507 l 138 -472 l 121 -472 q 115 -477 115 -472 q 17 -426 45 -464 q 0 -368 7 -368 q 63 -46 23 -155 l 63 -40 q 35 46 44 -40 q 161 484 35 209 q 218 766 161 554 l 201 829 q 276 1128 276 1103 l 420 1588 q 512 1819 494 1753 q 604 1870 555 1870 m 599 1761 q 500 1502 599 1721 q 363 1024 363 1044 l 311 823 q 345 783 311 813 q 271 518 308 743 q 173 230 271 452 q 144 52 144 143 l 144 23 q 155 12 146 12 q 218 167 188 12 l 224 167 l 224 150 q 127 -201 224 96 q 109 -368 127 -235 l 115 -368 q 282 -92 282 -172 q 334 -29 328 -29 l 340 -29 l 340 -35 q 328 -138 340 -90 l 340 -144 l 351 -144 q 426 -86 390 -92 q 454 -63 426 -83 l 460 -63 q 518 -132 460 -132 q 564 -6 532 -125 q 616 92 608 92 q 639 98 626 98 q 748 40 639 63 q 857 98 827 74 q 967 35 967 98 q 1059 -208 1007 -119 q 1145 -248 1099 -248 l 1168 -219 l 1168 -213 l 1145 -69 l 1215 -184 q 1272 -208 1255 -208 q 1318 -167 1298 -197 q 1352 -178 1337 -178 l 1387 -178 q 1398 -167 1398 -178 q 1341 115 1387 -4 q 1289 328 1289 295 l 1295 386 q 1226 644 1279 486 q 1192 731 1208 731 l 1180 731 q 1145 650 1180 687 q 1122 725 1135 650 q 1145 789 1145 774 q 1134 829 1145 829 q 1145 857 1145 848 q 1082 1111 1145 935 q 1070 1197 1070 1165 l 1070 1203 q 1076 1225 1070 1216 l 1019 1375 q 967 1514 967 1431 q 903 1709 956 1709 q 869 1663 884 1663 l 834 1669 q 794 1623 816 1636 q 725 1674 760 1674 l 713 1674 q 667 1600 703 1630 q 610 1761 637 1650 l 599 1761 m 760 811 l 766 811 q 817 570 766 758 l 812 558 q 817 484 817 526 q 771 512 771 507 q 685 500 716 500 l 685 507 l 690 535 q 673 604 690 571 q 731 679 673 618 q 760 811 731 733 z "},"B":{"ha":1439,"x_min":0,"x_max":1439,"o":"m 829 1715 q 1047 1606 942 1715 q 1162 1514 1076 1559 q 1295 1255 1281 1388 q 1358 932 1295 1200 q 1364 921 1364 932 q 1260 702 1341 702 q 1324 604 1298 608 q 1421 363 1421 469 l 1421 264 q 1439 184 1421 222 l 1375 28 q 1266 -184 1375 -26 q 1145 -213 1210 -208 q 1002 -363 1093 -323 q 915 -391 963 -368 q 731 -357 789 -391 q 535 -432 648 -432 l 484 -414 q 414 -558 462 -558 q 351 -576 397 -576 q 253 -500 253 -554 q 201 -444 233 -444 q 69 -224 109 -444 q 17 161 39 -167 l 17 167 q 35 340 35 324 l 35 460 q 28 466 35 466 q 40 524 40 492 q 23 598 40 533 q 35 667 35 644 q 12 743 20 667 q 23 857 12 780 q 17 892 23 862 q 23 956 23 943 q 5 1042 12 1042 l 12 1070 l 12 1099 q 0 1208 12 1162 q 17 1387 10 1223 q 86 1508 43 1508 q 294 1634 224 1634 q 345 1640 315 1640 q 495 1623 408 1640 q 748 1692 541 1651 q 829 1715 748 1696 m 512 1519 q 340 1537 474 1519 q 208 1461 268 1537 q 127 1370 127 1432 q 109 1203 121 1284 q 121 1122 121 1126 q 115 1053 115 1063 q 132 961 125 961 q 121 720 127 928 q 167 696 153 696 q 132 604 132 611 l 132 593 q 155 530 132 576 l 138 466 q 144 340 144 380 q 121 167 144 321 q 201 -317 123 -30 q 213 -340 213 -317 l 218 -340 q 253 -231 228 -340 l 311 -127 l 317 -127 q 351 -178 317 -178 q 397 -196 397 -192 q 587 -98 486 -196 l 587 -92 q 673 -150 606 -92 l 725 -150 q 731 -144 731 -150 l 743 -150 l 766 -150 q 921 -18 853 -150 q 979 58 961 5 l 972 86 l 972 98 l 979 155 l 990 155 q 1047 28 1010 28 l 1059 28 q 1180 299 1126 142 q 1185 305 1185 299 l 1185 317 l 1174 334 l 1174 484 q 1065 685 1174 597 q 972 817 1065 745 q 944 863 945 853 q 1025 926 997 926 q 1030 909 1025 920 l 1042 915 q 1047 909 1047 915 q 1105 972 1105 928 q 1116 1047 1112 1034 q 1036 1438 1097 1047 q 834 1606 939 1606 l 570 1542 q 512 1519 532 1519 m 552 1189 l 563 1189 q 714 1103 714 1171 q 646 1051 699 1103 q 680 948 646 1042 l 680 940 l 622 931 l 575 931 l 575 991 q 528 1180 575 1116 l 552 1189 m 600 618 l 657 618 l 686 604 l 657 505 q 793 385 696 385 l 793 363 q 628 214 726 286 l 618 214 q 561 271 561 229 l 600 541 l 600 547 l 591 590 q 600 618 600 603 z "},"C":{"ha":1347,"x_min":0,"x_max":1347,"o":"m 794 1732 q 1053 1577 899 1732 q 1139 1514 1053 1558 q 1226 1375 1206 1451 q 1347 1168 1293 1332 q 1283 817 1347 912 q 1122 667 1217 667 l 1111 667 q 1076 621 1111 648 q 1145 524 1145 574 q 1278 408 1278 493 q 1289 380 1289 408 l 1283 311 q 1295 201 1289 207 q 1289 178 1289 191 l 1289 161 q 1295 138 1289 148 q 1289 115 1289 128 l 1289 81 q 1295 75 1289 75 q 1226 -201 1257 -201 q 1070 -294 1070 -248 q 875 -432 962 -432 q 794 -426 866 -432 l 766 -432 q 690 -414 709 -414 l 685 -414 q 604 -495 685 -441 q 547 -507 558 -507 q 340 -368 406 -507 q 196 -236 286 -368 q 98 -121 134 -236 q 0 351 4 111 q 17 558 4 558 l 12 570 l 12 587 q 28 685 12 614 q 5 800 5 779 q 23 944 23 841 l 23 1111 q 104 1347 23 1301 q 150 1410 115 1347 q 178 1450 172 1410 q 351 1571 277 1548 q 530 1629 401 1629 q 794 1732 730 1732 m 449 1514 l 271 1398 l 271 1393 q 282 1341 282 1355 q 271 1329 282 1329 l 218 1329 q 161 1249 201 1249 q 127 1116 137 1249 q 132 1053 132 1077 l 132 1007 q 115 783 132 873 q 155 656 115 749 q 121 610 121 631 q 109 357 109 426 l 109 317 q 196 -86 109 151 q 264 -144 196 -144 l 282 -144 q 391 -271 322 -271 l 420 -271 q 460 -231 420 -258 q 553 -69 504 -127 l 553 -75 q 530 -132 530 -115 l 530 -138 q 622 -190 566 -190 l 662 -190 q 667 -184 667 -190 q 743 -196 694 -196 q 892 -35 831 -125 q 949 23 902 -35 l 967 12 l 1019 12 l 1019 46 q 1042 213 1042 143 l 1042 259 q 1036 460 1042 346 q 1042 507 1042 483 q 979 547 1042 533 q 898 484 926 494 q 863 518 893 503 l 857 518 q 690 426 843 518 q 564 317 597 387 q 553 288 553 298 l 541 288 l 541 294 q 570 512 541 346 l 570 518 q 535 673 570 573 l 535 806 q 610 979 551 857 q 627 1030 617 1030 q 673 979 627 1022 l 679 949 q 673 886 679 937 q 760 760 673 798 l 789 760 q 840 817 796 817 q 915 926 892 844 q 926 944 915 944 q 972 903 926 908 l 996 903 q 1065 1013 996 918 q 1093 1139 1093 1100 l 1093 1237 q 1099 1289 1093 1258 q 990 1433 1072 1377 q 972 1508 981 1446 q 800 1629 907 1581 q 524 1514 777 1629 l 449 1514 z "},"D":{"ha":1410,"x_min":0,"x_max":1410,"o":"m 622 1761 q 932 1583 771 1761 q 1105 1433 953 1583 q 1278 1093 1216 1325 q 1410 696 1410 972 l 1410 690 q 1324 397 1410 669 q 1358 276 1341 353 q 1215 -155 1274 -99 q 1105 -236 1183 -236 q 1082 -241 1105 -241 l 1076 -241 q 1019 -231 1065 -241 q 863 -386 978 -332 q 627 -449 738 -426 q 512 -507 627 -472 q 397 -454 407 -476 q 351 -460 366 -460 q 248 -357 248 -439 q 236 -328 236 -357 l 224 -334 q 109 -236 142 -334 q 28 63 28 18 l 58 218 q 5 477 11 218 l 0 477 q 5 484 0 484 l 0 512 l 0 524 q 5 576 0 545 l 0 587 q 28 783 28 703 q 23 829 28 806 q 40 1013 31 971 q 12 1180 12 1065 q 17 1243 17 1211 q 12 1289 17 1248 l 17 1301 q 5 1358 12 1344 q 86 1697 37 1697 q 161 1727 86 1718 q 276 1692 176 1727 q 403 1732 340 1732 q 484 1721 464 1721 l 495 1721 q 622 1761 590 1761 m 477 1611 q 397 1623 416 1623 l 386 1623 q 294 1577 359 1623 l 288 1577 q 155 1623 262 1577 q 115 1375 140 1605 q 121 1266 121 1312 l 121 1099 q 184 1024 121 1068 q 132 880 132 993 l 132 829 q 138 754 132 791 q 109 570 109 595 l 109 558 q 121 311 121 330 l 121 305 q 132 294 123 294 q 173 357 159 357 l 178 357 l 178 305 q 184 299 178 299 q 132 40 155 184 l 218 -224 l 224 -224 q 282 -92 233 -223 l 288 -92 q 374 -264 315 -264 l 386 -264 q 477 -161 423 -236 l 484 -161 q 507 -208 484 -168 q 725 -127 725 -159 q 869 109 770 -98 l 909 155 q 915 138 915 144 q 903 52 915 125 q 932 -6 916 -6 l 956 -6 q 1059 218 1059 115 q 1105 397 1105 355 q 1076 530 1105 431 l 1162 817 q 1076 1122 1162 1056 q 1013 1272 1045 1122 q 863 1502 958 1426 q 627 1651 730 1651 l 616 1651 q 484 1611 524 1611 l 477 1611 m 593 1088 q 708 875 708 882 l 679 771 q 702 696 696 729 q 696 633 696 657 q 743 564 696 608 q 650 414 694 414 l 604 386 l 599 386 q 558 702 581 663 q 576 800 576 773 l 576 806 q 599 863 589 806 l 593 886 q 581 1082 593 977 l 593 1088 z "},"E":{"ha":1381,"x_min":0,"x_max":1381,"o":"m 1019 1790 q 1226 1681 1179 1790 q 1301 1634 1226 1648 q 1370 1537 1346 1613 q 1381 1485 1381 1493 q 1324 1266 1324 1333 l 1324 1197 q 1329 1192 1324 1192 q 1278 972 1301 1047 q 1215 903 1278 919 q 1249 806 1226 882 l 1197 662 l 1197 644 q 1232 500 1197 618 l 1232 489 q 1151 368 1232 398 l 1145 368 l 1145 357 q 1249 311 1145 343 q 1295 161 1295 256 q 1301 150 1301 161 q 1243 12 1283 85 q 1260 -58 1260 -40 q 1208 -224 1260 -108 q 1139 -449 1208 -330 q 1019 -495 1048 -495 q 892 -444 947 -472 q 823 -460 840 -460 l 806 -460 q 667 -374 667 -435 l 662 -374 q 507 -472 606 -397 q 420 -495 439 -495 l 368 -495 q 161 -409 161 -467 q 127 -351 136 -351 q 0 -213 0 -307 q 40 -29 40 -63 q 35 -12 40 -22 q 46 35 46 24 q 0 207 5 109 l 5 218 q 0 224 5 224 l 5 253 l 5 259 q 0 460 5 381 q 40 743 0 638 q 0 886 0 814 q 5 990 5 941 l 5 1042 q 23 1139 5 1069 q 0 1208 4 1208 q 75 1594 23 1554 q 167 1634 104 1634 q 264 1617 215 1634 q 604 1727 522 1727 l 679 1704 q 789 1727 726 1727 l 863 1727 q 990 1784 879 1727 q 1019 1790 1009 1784 m 1007 1681 q 869 1617 922 1617 l 760 1617 q 667 1583 677 1583 l 667 1588 q 599 1617 667 1598 q 276 1508 536 1617 q 155 1531 248 1519 q 109 1208 125 1490 q 132 1145 132 1151 q 109 880 109 1068 q 161 736 109 836 q 109 466 109 684 q 115 311 109 417 q 109 184 109 245 q 178 58 126 68 l 184 58 l 184 52 q 144 -12 144 12 l 144 -23 q 150 -46 144 -36 q 109 -224 109 -196 q 271 -259 146 -259 q 391 -184 326 -259 q 495 -132 431 -180 l 553 -132 l 593 -127 q 667 -224 617 -224 l 690 -224 q 748 -127 722 -193 l 766 -115 q 834 -236 800 -158 q 880 -253 869 -253 l 886 -253 q 961 -127 942 -253 q 1013 52 961 -58 l 1013 75 q 990 161 990 136 l 1047 264 q 1042 345 1042 313 l 1042 351 q 990 363 1004 363 q 926 357 966 363 q 857 363 886 363 q 622 271 681 271 l 616 299 l 616 351 q 610 414 616 375 q 720 507 655 507 q 800 489 758 489 q 875 576 812 489 l 886 581 l 944 581 q 984 598 965 598 l 984 621 q 956 696 984 645 q 949 771 949 734 l 949 811 q 996 938 996 919 q 846 996 996 996 q 696 926 821 996 q 616 903 637 903 q 576 932 599 932 q 627 1002 627 975 l 627 1076 q 736 1139 646 1098 q 794 1185 781 1185 q 932 1168 886 1168 l 961 1168 q 1013 1128 968 1128 l 1042 1128 l 1076 1329 l 1076 1404 q 1128 1623 1076 1445 l 1128 1640 q 1019 1681 1119 1681 l 1007 1681 z "},"F":{"ha":1232,"x_min":0,"x_max":1232,"o":"m 972 1784 q 1082 1715 1040 1784 q 1093 1657 1093 1663 l 1111 1657 q 1232 1542 1216 1657 l 1232 1537 q 1162 1329 1220 1464 q 1220 1197 1220 1258 l 1192 1105 l 1208 1053 q 1122 909 1164 909 q 1099 892 1099 898 q 1168 783 1144 892 q 1088 639 1148 692 q 1128 507 1128 522 q 1082 322 1128 492 q 1013 276 1065 292 q 909 150 975 150 q 852 132 888 132 l 840 132 q 789 144 826 132 l 789 132 q 794 104 789 113 l 789 81 q 794 5 789 77 q 777 -58 794 -14 q 783 -81 783 -68 q 777 -86 783 -86 l 783 -115 q 673 -409 758 -409 q 604 -449 604 -433 q 512 -604 572 -604 q 477 -616 503 -604 q 368 -535 368 -596 q 351 -484 359 -535 q 213 -363 235 -484 q 167 -190 178 -190 q 109 -98 134 -168 q 52 23 69 -98 q 35 155 52 80 q 46 241 35 186 q 12 466 12 330 q 17 484 12 472 l 12 518 q 17 541 12 541 l 12 598 l 12 857 q 0 949 12 865 l 0 1013 q 28 1162 0 1114 l 12 1220 q 81 1600 45 1600 q 173 1640 118 1640 q 213 1629 213 1640 q 518 1715 380 1715 q 604 1692 581 1704 q 972 1784 825 1784 m 599 1583 q 518 1606 536 1606 l 500 1606 q 264 1537 404 1606 l 208 1519 q 173 1531 189 1531 l 167 1531 q 127 1249 141 1531 l 121 1249 q 127 1243 121 1243 l 121 1215 l 155 1174 l 155 1157 q 138 1139 147 1157 q 144 1134 144 1139 q 109 1042 113 1134 l 109 915 q 121 903 111 903 q 115 886 121 897 q 121 656 121 717 q 115 616 121 639 q 121 558 121 585 l 121 500 q 155 253 121 296 q 144 150 144 224 l 161 63 l 155 23 q 167 -18 167 -14 l 190 -18 q 230 195 213 58 q 241 184 241 194 q 236 150 236 154 l 241 127 l 230 63 l 236 35 l 230 -35 l 236 -35 l 218 -86 q 288 -127 218 -114 q 294 -132 288 -132 l 288 -161 l 288 -201 q 328 -380 288 -243 l 340 -380 l 397 -184 q 403 -138 397 -161 q 443 -161 434 -138 l 443 -201 q 530 -12 530 -201 q 535 12 535 -12 l 530 46 l 535 46 l 530 58 l 530 63 q 547 121 530 92 q 535 334 535 299 l 541 363 l 535 363 q 541 368 535 368 l 535 408 l 535 414 q 587 437 535 425 q 656 484 625 484 l 690 368 l 713 368 q 794 484 760 368 l 817 507 l 852 507 q 880 639 852 524 l 880 650 q 852 725 865 650 q 840 760 840 725 q 903 875 862 875 q 915 898 903 884 l 915 926 q 863 938 878 938 q 644 852 763 938 q 599 857 613 857 q 518 823 587 857 l 518 829 l 524 869 q 518 903 524 873 l 524 926 q 518 990 518 958 q 530 1036 530 1027 l 524 1059 q 662 1145 524 1093 q 817 1105 748 1105 l 852 1105 l 875 1128 l 898 1128 q 921 1122 911 1128 q 938 1128 932 1128 l 938 1157 q 956 1168 938 1168 l 956 1180 q 944 1237 956 1191 l 972 1335 q 880 1461 961 1362 q 984 1663 930 1461 l 984 1674 q 644 1594 827 1674 q 599 1583 608 1583 z "},"G":{"ha":1364,"x_min":0,"x_max":1364,"o":"m 834 1824 l 846 1819 l 857 1824 q 1030 1738 975 1804 q 1116 1663 1065 1663 q 1266 1438 1189 1615 q 1318 1301 1318 1337 q 1283 1203 1301 1230 q 1335 996 1335 1058 q 1266 800 1295 897 q 1192 754 1237 765 l 1192 748 q 1301 610 1280 748 q 1329 334 1318 517 q 1364 201 1348 334 q 1347 52 1358 52 l 1352 12 q 1329 -178 1352 -29 q 1266 -437 1329 -238 q 1180 -645 1266 -506 q 1093 -667 1115 -667 q 984 -564 984 -652 q 869 -495 926 -559 q 829 -432 842 -432 q 766 -397 808 -432 q 627 -437 692 -430 l 466 -380 q 426 -391 429 -391 q 305 -305 337 -371 q 218 -236 281 -253 q 23 155 62 -58 q 12 259 23 183 q 69 587 31 587 q 0 743 0 704 q 63 1232 35 1232 q 109 1468 98 1354 q 271 1583 176 1583 q 414 1657 344 1657 q 673 1790 501 1790 q 690 1796 673 1796 q 725 1784 725 1792 q 834 1824 777 1813 m 725 1669 l 696 1686 q 489 1583 549 1686 q 380 1542 439 1542 q 305 1456 317 1483 l 276 1473 l 253 1473 q 201 1352 201 1451 q 173 1197 173 1241 q 127 949 138 1197 q 109 743 117 949 q 150 667 109 721 q 196 541 196 555 l 196 524 l 178 524 q 132 443 132 524 q 121 253 132 405 q 224 -69 121 100 q 294 -155 286 -155 q 328 -46 294 -142 q 380 -150 338 -58 q 489 -196 452 -196 l 512 -196 q 587 -150 555 -196 q 650 -121 622 -121 q 679 -173 650 -170 q 777 -46 750 -173 q 817 75 798 -15 l 829 81 l 823 40 l 823 -121 q 817 -173 823 -142 l 846 -328 l 852 -328 q 903 -241 899 -328 l 921 -241 q 949 -420 949 -334 l 949 -432 l 961 -432 q 1019 -311 1019 -359 l 1019 -276 q 1082 -52 1082 -130 l 1076 -29 q 1105 132 1105 54 l 1099 173 q 1111 241 1111 212 l 1111 248 q 1105 271 1111 260 q 1116 299 1116 289 q 1082 477 1116 355 q 1042 771 1070 652 l 1030 771 q 932 639 1007 755 l 926 639 q 834 667 892 667 q 731 570 731 587 q 736 512 736 519 q 616 374 736 481 q 604 443 604 414 l 604 530 q 576 604 576 596 l 576 610 q 610 696 610 627 q 622 823 616 696 q 599 926 616 903 q 662 1059 599 1034 q 708 1145 671 1059 q 743 1185 736 1185 l 743 1180 q 720 1019 720 1021 q 783 811 720 968 q 800 771 787 771 l 806 771 q 869 852 869 814 l 869 892 q 863 898 869 898 q 880 926 871 926 q 909 886 880 903 l 921 886 q 967 967 945 901 q 1053 1059 1053 967 q 1082 1128 1082 1106 l 1082 1134 q 1030 1352 1082 1192 q 1065 1421 1065 1407 l 1065 1450 q 996 1594 1019 1529 q 857 1715 931 1715 l 834 1715 q 743 1674 826 1715 q 725 1669 731 1669 z "},"H":{"ha":1456,"x_min":0,"x_max":1456,"o":"m 386 1796 q 437 1784 429 1784 q 495 1796 480 1796 q 616 1681 616 1774 q 736 1611 736 1647 l 748 1611 q 857 1686 777 1686 q 961 1611 932 1686 q 1070 1537 1016 1611 l 1093 1514 q 1145 1537 1093 1522 q 1243 1479 1196 1537 q 1283 1410 1268 1410 q 1387 1341 1387 1390 q 1439 1185 1398 1324 q 1433 990 1433 1065 l 1433 869 l 1456 696 q 1451 581 1451 632 l 1451 518 q 1421 437 1435 437 q 1444 357 1444 369 q 1428 264 1444 342 q 1444 115 1428 250 l 1439 104 l 1444 75 q 1398 -138 1428 -45 q 1347 -288 1398 -261 l 1272 -322 q 1157 -432 1227 -432 q 1134 -437 1157 -437 l 1128 -437 l 1116 -432 q 1007 -484 1088 -460 q 857 -380 857 -449 q 829 -345 848 -345 q 766 -317 798 -340 l 760 -317 q 644 -599 697 -599 q 587 -610 598 -610 q 489 -535 489 -588 q 466 -477 481 -533 q 460 -484 460 -477 q 363 -444 405 -474 q 208 -363 255 -444 q 161 -305 197 -305 q 46 -132 46 -262 q 17 115 17 73 q 23 207 23 148 l 28 207 l 23 218 l 23 317 q 58 437 23 377 q 23 530 23 462 l 23 708 q 0 875 23 781 q 46 1139 46 1042 q 52 1410 46 1212 q 46 1508 46 1478 q 127 1727 46 1683 q 173 1738 173 1727 q 264 1697 237 1722 l 271 1697 q 386 1796 271 1762 m 282 1428 l 276 1428 q 218 1514 276 1442 q 184 1629 218 1559 l 167 1629 q 155 1519 155 1559 q 161 1410 155 1452 q 121 926 161 1006 q 109 869 109 926 q 132 725 132 744 q 127 512 127 606 q 178 449 146 500 l 178 437 q 127 276 127 366 q 138 213 132 213 l 127 190 q 132 173 127 184 l 127 132 l 132 40 l 127 17 q 161 -184 150 -56 q 208 -208 185 -208 l 248 -208 l 271 -115 l 282 -115 q 311 -190 298 -190 q 317 -167 317 -180 l 322 -167 q 368 -196 345 -196 q 397 -161 390 -161 q 454 -374 430 -349 q 530 -121 469 -374 q 553 0 553 -51 q 558 121 553 46 q 553 155 553 151 q 558 236 558 191 l 558 253 l 553 288 q 604 328 568 328 q 644 253 604 274 q 702 351 698 330 q 771 437 702 401 l 777 437 q 783 426 777 426 q 766 294 778 409 q 777 241 771 283 q 766 155 777 229 l 812 -213 l 846 -241 l 880 -241 q 915 -132 897 -241 q 926 -104 926 -132 l 938 -104 q 1007 -201 938 -189 q 1059 -86 1045 -136 q 1105 -92 1064 -86 q 1151 -69 1144 -69 l 1151 -58 q 1145 23 1151 -26 q 1185 161 1185 96 q 1180 167 1185 167 q 1197 190 1188 190 l 1180 397 q 1192 472 1192 449 l 1192 495 q 1145 564 1192 520 l 1145 570 l 1203 633 l 1203 748 q 1208 806 1203 775 l 1185 990 l 1185 1197 q 1192 1306 1185 1243 q 1145 1428 1160 1428 q 1070 1208 1127 1395 q 1042 1168 1047 1168 q 1030 1272 1030 1197 l 1030 1375 q 972 1468 1030 1400 l 961 1508 l 956 1508 q 926 1306 938 1508 l 915 1306 q 852 1583 915 1510 q 800 1404 817 1513 l 806 1335 q 794 1197 794 1243 l 800 1162 q 794 1116 794 1140 l 794 1082 l 800 1047 l 794 1036 q 800 926 800 973 l 800 886 l 806 846 q 679 783 770 844 q 581 748 604 783 l 576 748 l 570 800 q 576 886 576 872 l 570 898 q 581 1007 581 943 l 581 1116 q 587 1192 581 1154 q 581 1249 581 1211 q 587 1266 581 1255 q 524 1617 549 1617 q 500 1686 515 1686 l 484 1686 q 449 1583 464 1686 q 431 1629 437 1583 q 397 1686 397 1672 l 386 1686 q 317 1496 368 1686 q 282 1428 288 1428 z "},"I":{"ha":800,"x_min":0,"x_max":800,"o":"m 477 1917 q 627 1790 595 1917 q 771 1565 771 1790 l 771 1560 l 766 1502 l 771 1473 q 736 1220 771 1324 q 789 996 771 1164 q 766 702 789 831 q 794 564 794 588 q 748 431 794 526 q 794 317 794 352 q 789 276 794 299 l 800 104 l 777 28 q 794 -92 789 -8 q 754 -264 783 -178 l 760 -299 l 760 -305 q 696 -449 760 -367 q 547 -500 661 -469 q 443 -639 503 -639 q 386 -656 422 -656 q 288 -581 288 -634 q 264 -524 279 -581 q 259 -530 259 -524 q 115 -368 157 -530 q 40 -208 67 -368 q 28 -132 28 -181 l 28 -115 q 23 184 28 14 q 28 230 28 216 q 23 288 23 260 q 40 363 23 297 q 0 518 0 439 l 0 564 q 98 1065 0 890 q 52 1215 72 1086 l 12 1381 l 17 1433 q 5 1491 5 1476 q 12 1565 5 1494 l 5 1565 q 69 1686 14 1624 q 248 1784 132 1784 q 380 1882 306 1882 q 477 1917 380 1903 m 305 1681 l 264 1681 q 138 1600 179 1681 q 115 1571 130 1600 q 121 1554 115 1554 l 115 1525 l 115 1468 l 127 1450 q 121 1370 121 1401 q 173 1139 144 1316 l 213 1139 q 271 1387 246 1139 l 282 1387 l 282 1347 q 322 1278 312 1278 l 328 1278 q 391 1364 372 1305 q 437 1393 391 1379 q 454 1358 445 1358 q 518 1485 518 1383 q 524 1583 518 1583 q 518 1623 518 1605 q 524 1686 518 1655 q 495 1807 524 1807 l 454 1807 q 363 1767 428 1784 l 305 1681 m 477 1301 q 414 1116 477 1277 l 409 1116 q 368 1134 387 1134 q 305 1013 359 1133 q 259 961 269 962 l 253 961 q 208 996 253 996 l 190 996 q 132 857 156 972 q 104 553 109 683 q 161 357 104 446 q 127 264 127 298 l 138 241 q 127 167 132 176 q 138 -86 138 75 l 138 -144 q 190 -294 138 -270 q 248 -420 204 -294 l 253 -420 q 305 -345 305 -382 l 305 -294 q 340 -201 317 -282 l 345 -201 q 368 -253 355 -201 l 397 -259 l 414 -259 q 437 -219 426 -259 l 449 -219 l 454 -248 l 472 -248 q 512 -184 512 -207 q 507 -127 512 -177 q 547 40 535 -40 l 530 155 q 553 230 547 230 q 541 426 547 258 l 547 454 l 472 547 q 541 656 472 558 l 547 696 l 547 702 q 518 829 518 810 q 541 1134 541 982 q 484 1301 525 1301 l 477 1301 z "},"J":{"ha":1444,"x_min":0,"x_max":1444,"o":"m 1116 1836 q 1255 1715 1225 1836 q 1393 1577 1393 1691 q 1352 1381 1352 1439 q 1421 1151 1421 1242 q 1416 1145 1421 1145 l 1421 1116 l 1421 1065 q 1444 846 1421 996 q 1381 512 1444 698 q 1433 345 1433 393 q 1381 -23 1400 205 q 1255 -340 1335 -207 q 1116 -391 1204 -368 q 972 -351 1063 -391 q 869 -386 953 -363 q 806 -374 861 -380 q 656 -449 806 -399 l 650 -449 q 616 -444 644 -444 q 466 -558 570 -558 l 449 -558 q 305 -477 305 -532 q 241 -414 250 -414 q 144 -317 203 -414 q 75 -184 111 -304 q 0 92 0 -134 q 52 587 0 587 q 218 696 128 696 l 253 696 q 345 748 277 715 q 477 840 390 840 q 587 777 547 840 l 593 777 l 593 823 q 587 829 593 829 q 599 880 593 839 q 558 1157 563 880 q 604 1600 558 1219 l 599 1611 q 720 1773 631 1773 q 731 1778 731 1773 q 823 1732 789 1767 q 903 1784 841 1732 q 1042 1824 947 1784 q 1116 1836 1067 1836 m 817 1537 q 754 1629 817 1570 q 731 1669 743 1669 q 690 1393 709 1669 q 662 1111 662 1199 q 673 996 673 1029 l 673 972 q 720 903 673 947 q 696 840 696 844 q 702 771 696 831 q 690 558 702 698 q 713 466 713 493 q 627 363 713 398 q 570 271 593 330 l 564 271 q 512 380 512 329 q 530 484 512 399 q 518 587 518 549 q 524 685 518 606 q 489 731 508 723 l 466 731 q 426 673 460 731 q 311 610 418 656 l 294 581 q 213 593 221 593 q 121 484 121 536 l 104 155 l 109 155 l 104 144 q 144 -104 113 -104 l 155 -104 l 184 -98 l 184 -150 q 248 -253 184 -253 q 317 -322 248 -322 l 340 -322 q 426 -167 370 -305 l 431 -167 q 507 -208 468 -208 l 512 -208 q 639 -132 553 -208 q 748 -144 708 -144 q 846 -63 846 -99 l 852 -63 q 880 -127 865 -63 q 967 -150 913 -150 l 979 -150 q 1059 -81 1059 -150 q 1151 241 1120 -13 q 1185 472 1151 354 q 1151 581 1185 500 q 1122 616 1145 616 l 1122 633 q 1192 926 1192 777 l 1192 979 q 1162 1358 1168 1172 q 1122 1433 1137 1433 l 1099 1416 l 1093 1428 q 1145 1721 1093 1510 l 1139 1721 q 1128 1732 1128 1721 q 990 1692 1101 1732 q 909 1646 944 1692 q 840 1577 840 1639 q 817 1537 825 1537 z "},"K":{"ha":1508,"x_min":0,"x_max":1508,"o":"m 173 1836 q 328 1727 259 1836 q 340 1704 328 1704 l 351 1704 q 472 1790 401 1782 q 604 1704 535 1790 q 708 1629 604 1660 q 771 1485 771 1535 q 944 1640 877 1640 l 956 1640 q 1093 1519 1040 1640 q 1203 1444 1203 1491 q 1243 1324 1219 1444 q 1238 1289 1238 1293 q 1318 1197 1272 1197 q 1358 1088 1358 1130 q 1324 996 1347 1018 l 1335 967 q 1192 644 1335 836 l 1093 500 q 1180 345 1093 479 q 1243 276 1193 297 q 1381 17 1267 196 q 1508 -317 1508 -239 q 1451 -414 1487 -414 l 1473 -518 q 1410 -633 1453 -633 q 1352 -650 1407 -633 q 1192 -576 1276 -641 q 979 -380 1015 -380 q 817 -248 921 -380 l 783 -224 l 771 -224 q 696 -322 771 -275 q 576 -432 696 -410 q 530 -420 565 -432 q 420 -564 530 -532 q 374 -581 374 -576 q 259 -500 259 -549 q 190 -437 238 -437 q 98 -328 153 -437 q 23 115 23 -45 q 17 127 17 115 q 35 190 35 181 q 17 288 23 234 l 23 299 q 17 345 17 331 q 23 374 17 364 q 0 800 0 665 l 0 875 l 28 1352 l 23 1364 q 81 1784 60 1784 q 173 1836 128 1836 m 167 1727 q 161 1709 167 1721 q 167 1692 161 1703 q 132 1341 132 1451 l 138 1341 l 127 1318 l 132 1295 q 121 1145 121 1198 q 127 1139 121 1139 l 121 1105 q 109 892 109 937 l 109 823 q 104 748 109 786 q 127 363 127 490 q 121 345 127 357 q 132 218 127 340 q 178 184 146 218 q 127 121 127 132 l 161 -161 q 230 -340 192 -311 q 282 -317 248 -340 l 276 -259 l 276 -231 q 317 -98 305 -181 l 322 -98 q 357 -167 332 -98 q 449 -196 409 -196 l 454 -167 q 449 -155 454 -155 q 472 -40 449 -122 l 484 -40 l 484 -58 q 518 -92 484 -92 q 576 161 556 -54 l 576 264 q 558 305 576 284 l 558 317 q 581 340 558 326 l 604 340 q 789 -81 634 178 q 863 -150 854 -150 l 875 -150 q 892 -132 883 -150 l 892 -127 q 869 -52 869 -58 q 961 -190 898 -73 q 1168 -397 968 -190 q 1203 -409 1187 -409 l 1226 -409 l 1220 -397 l 1226 -386 q 1111 -75 1215 -334 l 1116 -75 q 1243 -201 1243 -180 l 1249 -201 q 1260 -190 1260 -201 q 1036 282 1260 -98 q 921 357 1036 345 l 909 357 l 909 363 q 956 403 926 363 l 956 408 q 834 621 834 587 l 834 627 q 1070 996 834 656 q 1082 1070 1082 1047 l 1082 1099 l 1076 1099 l 1047 1076 l 1047 1088 q 1111 1220 1111 1198 l 1111 1225 q 1042 1260 1111 1243 q 1007 1347 1026 1347 l 996 1347 q 949 1260 961 1260 l 949 1266 l 996 1450 q 961 1531 996 1494 l 949 1531 q 783 1272 842 1420 q 581 979 621 1010 q 530 1065 530 1046 q 564 1272 551 1143 q 477 1681 545 1681 l 472 1681 q 431 1554 454 1681 q 368 1600 397 1600 l 351 1600 q 340 1588 340 1598 q 345 1542 345 1548 q 328 1496 328 1503 q 264 1629 296 1536 q 218 1704 242 1638 q 167 1727 188 1727 z "},"L":{"ha":1318,"x_min":0,"x_max":1318,"o":"m 604 1830 q 720 1704 701 1830 q 743 1709 732 1704 q 857 1583 857 1687 q 875 1456 865 1583 q 852 1364 869 1419 q 915 1168 915 1321 q 869 869 903 1004 l 875 829 l 875 794 q 869 771 875 781 q 880 662 875 771 l 875 639 q 886 593 886 618 q 863 500 886 581 q 892 408 892 437 l 892 374 l 1025 403 q 1174 276 1126 403 q 1289 195 1289 253 q 1318 115 1299 195 q 1295 -12 1308 -9 q 1301 -109 1301 -79 l 1301 -201 q 1157 -466 1232 -466 q 1116 -477 1134 -477 q 1025 -426 1048 -462 q 903 -466 930 -466 l 846 -466 q 690 -414 801 -466 q 524 -477 571 -475 l 409 -437 q 253 -500 300 -500 q 144 -414 157 -500 q 132 -368 132 -414 l 121 -374 q 0 -282 30 -374 l 0 -248 q 69 -35 43 -35 l 69 -29 q 52 52 52 35 l 81 173 q 23 403 23 304 q 28 449 28 444 q 23 541 23 508 q 52 616 26 587 l 52 621 q 5 754 22 657 q 17 1185 12 1158 q 12 1278 12 1211 l 12 1295 q 46 1393 12 1367 q 35 1438 35 1422 l 40 1468 q 35 1531 35 1507 q 132 1674 35 1634 q 264 1727 189 1727 l 282 1727 q 288 1721 288 1727 q 386 1767 327 1750 q 518 1819 441 1819 q 535 1813 529 1813 q 604 1830 589 1830 m 587 1721 q 553 1640 566 1640 q 547 1646 553 1646 q 553 1663 553 1657 q 524 1709 553 1693 l 512 1709 q 414 1663 481 1709 q 322 1554 326 1643 l 317 1554 q 288 1611 308 1561 l 264 1623 q 144 1554 234 1623 l 144 1508 q 150 1479 144 1489 l 144 1444 q 190 1324 144 1385 q 196 1301 196 1314 l 184 1295 q 132 1329 164 1329 q 121 1318 121 1328 l 121 1215 q 127 1185 121 1195 l 121 1151 l 121 1007 q 109 880 121 880 l 115 869 l 115 748 q 173 610 115 724 q 184 547 184 587 l 184 535 q 132 547 171 547 l 127 535 q 138 466 132 466 l 132 454 l 132 437 q 190 190 132 294 l 190 173 q 161 58 161 68 l 161 40 q 184 -40 184 -24 l 184 -46 q 104 -264 104 -175 l 115 -264 q 299 -167 136 -264 l 305 -167 q 380 -236 326 -236 l 397 -236 q 524 -155 457 -236 q 736 -231 664 -231 l 777 -231 q 863 -196 798 -205 q 967 -144 863 -181 l 967 -150 q 990 -241 977 -241 q 1047 -86 1047 -109 q 1053 69 1047 -45 l 1030 86 l 1025 86 q 938 58 1002 86 q 1047 115 938 79 q 1065 190 1065 159 q 1059 207 1065 196 q 1065 230 1065 217 l 1065 248 q 1042 294 1065 279 l 1013 294 q 857 224 899 274 q 760 190 857 203 q 731 241 753 241 q 644 195 703 241 l 633 195 l 639 236 l 639 426 q 644 547 639 472 q 570 621 644 590 l 570 627 q 633 702 633 690 l 627 783 l 633 806 l 622 898 l 627 938 l 622 990 q 667 1295 656 1157 q 662 1375 662 1331 l 662 1381 q 616 1416 647 1416 l 610 1416 l 587 1398 l 587 1404 q 627 1577 618 1559 l 610 1721 l 587 1721 z "},"M":{"ha":1646,"x_min":0,"x_max":1646,"o":"m 340 1940 q 500 1819 423 1940 l 593 1761 q 662 1651 612 1760 q 754 1433 743 1527 l 754 1398 q 806 1312 776 1398 l 817 1312 q 909 1617 853 1536 q 984 1704 916 1617 q 1047 1761 1047 1718 q 1122 1928 1047 1882 q 1168 1940 1168 1928 q 1266 1882 1221 1940 q 1329 1807 1308 1807 q 1560 1243 1470 1807 q 1617 1059 1617 1084 q 1611 1053 1617 1053 q 1623 1002 1623 1027 q 1583 898 1603 920 q 1623 650 1600 870 q 1611 530 1623 595 q 1646 414 1633 471 l 1617 207 l 1623 195 l 1623 184 q 1485 -374 1623 -28 q 1421 -564 1485 -475 l 1341 -593 q 1203 -460 1242 -593 q 1047 -271 1088 -460 l 1025 -264 q 926 -357 997 -357 q 909 -363 926 -363 q 777 -276 777 -330 q 743 -351 769 -277 q 662 -460 693 -375 q 553 -507 662 -481 q 466 -645 526 -645 q 414 -656 439 -656 q 299 -570 322 -656 q 213 -512 272 -512 q 104 -317 148 -454 q 35 98 81 -238 q 52 224 41 188 q 12 363 12 277 l 12 374 q 17 449 12 411 q 0 644 0 531 q 40 1099 23 1067 q 46 1105 46 1099 l 40 1145 q 104 1640 104 1380 q 224 1790 139 1790 l 224 1796 q 218 1819 224 1809 q 264 1910 230 1887 q 340 1940 286 1926 m 328 1819 l 328 1813 q 334 1784 328 1794 q 288 1617 301 1617 l 282 1617 q 259 1686 259 1668 l 236 1686 q 196 1341 204 1686 q 150 1134 150 1193 l 150 1128 q 173 1059 173 1065 q 132 1042 167 1059 l 132 990 q 109 662 109 720 l 109 610 q 121 408 121 424 l 121 328 l 127 299 l 132 299 q 178 374 157 299 l 190 374 q 144 115 144 180 q 230 -340 193 -340 q 264 -420 230 -345 l 294 -420 q 363 -219 322 -307 l 374 -144 l 380 -144 q 420 -264 380 -168 l 443 -264 q 524 -144 443 -204 q 558 -23 558 -36 l 558 52 q 553 75 558 64 q 576 178 564 104 q 570 466 570 409 l 570 477 l 576 477 q 690 23 576 336 q 731 -104 715 23 q 777 -121 745 -121 q 794 -46 794 -93 l 789 23 q 840 109 806 109 q 926 311 926 296 l 926 317 q 903 357 926 355 l 903 374 q 967 553 958 456 q 1019 696 1019 633 q 1030 685 1030 694 q 1002 570 1030 646 l 967 357 l 967 340 q 1007 173 967 300 l 1002 115 q 1093 -173 1002 -173 q 1116 -92 1111 -173 q 1145 -46 1137 -46 l 1145 -190 q 1203 -357 1164 -357 q 1255 -167 1226 -357 q 1375 403 1375 57 q 1393 547 1393 486 q 1364 650 1393 576 q 1375 794 1375 749 q 1324 1042 1352 991 l 1324 1047 q 1375 1128 1369 1095 l 1364 1180 q 1370 1197 1370 1191 q 1249 1692 1312 1339 q 1168 1830 1192 1813 q 1145 1657 1153 1799 q 1099 1623 1131 1623 l 1059 1623 q 938 1364 938 1503 q 921 1306 931 1364 q 961 1255 921 1298 l 961 1249 q 898 1225 961 1234 q 829 1013 865 1173 q 766 886 780 939 l 760 886 q 685 1013 688 967 q 696 1070 696 1048 l 581 1381 q 547 1444 558 1404 l 530 1444 q 477 1416 507 1444 l 472 1428 q 507 1548 507 1509 q 409 1755 507 1613 q 345 1830 409 1791 l 340 1830 q 328 1819 328 1828 z "},"N":{"ha":1519,"x_min":0,"x_max":1519,"o":"m 1105 1928 q 1215 1801 1215 1905 l 1232 1801 q 1238 1807 1238 1801 q 1347 1704 1347 1784 q 1387 1508 1360 1704 q 1456 1301 1428 1508 q 1508 949 1491 1206 q 1514 944 1514 949 l 1468 604 q 1508 518 1480 602 q 1485 391 1494 402 q 1519 201 1496 272 l 1468 35 q 1479 -35 1479 -12 q 1433 -259 1459 -185 q 1387 -299 1417 -281 q 1238 -547 1293 -547 q 1105 -604 1191 -584 q 996 -541 1026 -584 q 921 -460 975 -460 q 794 -253 867 -460 q 789 -231 789 -243 l 783 -231 q 679 -368 760 -368 q 627 -472 646 -368 q 547 -535 606 -520 l 512 -541 q 380 -449 380 -509 q 271 -363 271 -416 q 224 -311 235 -311 q 86 -46 119 -311 q 17 144 29 20 q 12 167 17 167 l 17 178 l 17 190 q 12 207 17 207 q 23 340 17 231 q 17 437 17 407 l 23 466 q 12 541 12 492 q 46 627 12 594 q 0 846 17 696 q 17 1047 12 935 l 12 1059 q 28 1197 20 1197 q 23 1215 23 1208 q 144 1450 23 1360 q 230 1514 230 1468 q 351 1611 279 1590 q 541 1744 447 1744 q 690 1634 665 1731 q 783 1588 690 1615 q 789 1583 783 1583 q 921 1681 854 1681 q 990 1853 981 1763 q 1105 1928 1036 1928 m 972 1456 l 972 1347 l 967 1347 q 961 1364 967 1364 q 967 1370 961 1370 q 961 1438 961 1430 q 967 1560 967 1539 l 949 1571 l 921 1571 q 840 1433 840 1500 q 846 1387 846 1392 q 840 1335 840 1356 q 869 1116 869 1289 q 846 886 863 1009 l 840 886 l 754 1088 q 685 1157 754 1157 q 662 1203 662 1181 q 708 1289 668 1240 l 708 1301 q 650 1450 708 1316 q 564 1634 589 1621 l 518 1634 q 374 1502 399 1502 q 299 1404 338 1502 q 224 1364 243 1364 q 121 1047 121 1364 q 127 1042 121 1042 l 121 1013 l 121 1002 q 109 846 121 956 q 167 541 109 807 q 127 558 138 558 l 121 547 l 121 524 q 132 466 122 466 l 127 454 l 127 443 q 132 340 127 381 q 121 201 121 222 l 127 190 q 121 184 127 184 q 184 -12 121 86 q 241 -208 222 -208 l 253 -208 q 299 -127 274 -208 q 334 -276 318 -144 q 386 -305 363 -305 q 443 -52 443 -126 q 437 5 443 -45 l 437 17 l 443 17 q 507 -138 443 1 l 518 -138 q 558 144 544 -126 q 581 230 558 155 l 581 236 q 530 581 581 319 q 535 616 530 585 q 530 650 530 646 q 547 720 534 720 q 604 576 557 656 q 667 357 604 527 q 736 167 667 299 q 812 121 808 128 q 789 69 789 79 l 794 17 q 789 12 789 17 q 857 -52 857 -47 l 857 -69 q 852 -92 857 -82 q 892 -208 857 -151 q 956 -363 918 -294 l 984 -363 q 1030 -241 1003 -363 l 1042 -241 l 1042 -294 l 1036 -322 l 1047 -328 q 1151 -127 1095 -281 q 1168 -81 1151 -81 q 1215 -18 1215 -81 q 1232 98 1215 8 q 1215 178 1220 168 q 1272 334 1243 223 q 1249 363 1272 342 q 1238 512 1249 426 q 1255 650 1255 579 q 1197 673 1233 673 l 1197 690 q 1255 1036 1255 848 q 1266 1065 1260 1065 q 1238 1312 1257 1082 q 1185 1548 1215 1394 q 1134 1600 1134 1548 l 1128 1634 l 1134 1663 q 1105 1819 1122 1751 l 1099 1819 q 1065 1709 1084 1819 q 996 1519 996 1616 q 972 1456 972 1489 z "},"O":{"ha":1364,"x_min":0,"x_max":1364,"o":"m 581 1813 l 610 1807 q 633 1813 613 1807 q 794 1732 718 1801 q 892 1646 848 1646 q 979 1525 964 1599 q 1053 1438 979 1502 q 1208 1283 1053 1395 q 1335 1024 1285 1215 q 1347 932 1335 947 l 1341 863 q 1358 639 1341 825 q 1335 553 1358 624 q 1364 472 1347 532 l 1347 380 q 1358 322 1354 370 q 1318 138 1343 180 l 1324 127 l 1324 81 q 1197 -196 1324 -43 q 1099 -299 1187 -196 q 1007 -374 1007 -319 q 926 -449 926 -422 q 806 -495 842 -495 q 685 -414 685 -463 q 650 -363 650 -373 q 524 -409 535 -409 q 403 -328 429 -383 q 340 -264 368 -264 q 167 -46 262 -208 q 109 92 155 54 q 5 391 5 171 q 12 593 12 541 l 17 604 q 12 610 17 610 l 17 662 l 0 829 q 5 886 0 836 q 0 932 5 891 q 115 1387 70 1387 q 208 1479 115 1426 q 241 1525 241 1479 q 449 1750 279 1619 q 581 1813 524 1813 m 299 1352 q 241 1375 259 1375 q 155 1208 204 1375 q 109 909 109 975 q 115 886 109 897 q 109 840 109 854 q 127 679 109 767 q 115 328 115 524 l 121 328 l 115 317 q 190 167 136 182 q 317 63 220 102 l 317 46 l 288 52 l 259 52 l 253 28 q 271 12 262 28 l 271 -18 q 368 -155 277 -18 q 386 -173 376 -155 q 489 -69 425 -173 q 547 -121 505 -121 l 576 -115 q 662 -259 576 -145 l 679 -259 q 760 -184 686 -259 q 817 -92 787 -184 l 812 -69 l 823 35 q 857 -81 833 35 l 869 -86 l 886 -86 q 1070 167 1070 105 q 1076 224 1076 197 l 1070 264 q 1105 449 1093 307 l 1105 454 q 1099 518 1105 479 q 1105 541 1105 528 l 1099 576 q 1116 598 1116 576 q 1030 633 1116 627 l 1025 644 q 1105 754 1105 688 q 1111 771 1111 754 l 1088 990 l 1093 1019 q 1047 1249 1093 1182 q 886 1410 1047 1293 q 869 1416 875 1416 l 800 1410 l 800 1421 q 834 1456 800 1426 l 834 1468 q 748 1571 834 1492 q 644 1704 748 1665 l 581 1704 q 357 1519 529 1699 q 305 1352 322 1435 l 299 1352 m 576 1059 l 587 1059 q 696 903 621 1039 q 685 748 685 845 q 702 639 702 661 l 696 598 l 725 507 l 725 500 q 644 391 725 450 q 604 340 614 340 q 558 386 604 363 l 558 403 q 512 547 558 547 q 466 553 490 553 l 454 553 l 454 558 q 530 604 460 574 q 535 627 535 614 q 530 650 535 640 l 535 662 q 507 898 518 848 q 576 1059 576 1019 z "},"P":{"ha":1456,"x_min":0,"x_max":1456,"o":"m 892 1813 l 909 1813 q 1220 1681 1032 1805 q 1341 1577 1301 1577 q 1439 1410 1439 1488 q 1421 1347 1439 1390 l 1428 1347 l 1421 1335 l 1421 1318 q 1456 1122 1452 1220 q 1451 1105 1451 1111 l 1456 1065 q 1387 720 1456 822 q 1306 621 1387 682 q 1197 363 1239 363 q 1116 288 1116 342 q 961 218 1116 247 l 956 218 q 846 271 909 218 q 823 253 823 262 l 823 184 q 817 132 823 154 q 823 69 823 101 q 720 -507 823 -53 q 622 -576 686 -576 q 604 -581 622 -581 q 507 -518 507 -557 q 472 -454 500 -518 q 466 -449 466 -454 q 386 -477 410 -477 q 294 -414 294 -456 q 259 -345 284 -413 q 127 -231 161 -345 q 12 276 40 96 q 5 431 12 391 q 23 500 12 441 q 0 639 12 523 q 28 1093 14 1042 l 23 1105 q 52 1180 36 1180 q 35 1272 35 1252 q 52 1450 46 1421 q 46 1479 46 1460 q 259 1617 46 1617 q 604 1796 304 1692 l 644 1801 q 754 1784 736 1784 l 760 1784 q 892 1813 865 1813 m 743 1674 q 639 1692 677 1692 l 633 1692 q 334 1525 334 1592 q 357 1514 348 1514 l 357 1502 q 340 1496 351 1502 q 230 1508 270 1508 q 155 1496 208 1508 l 155 1456 q 138 1295 155 1342 q 178 1180 138 1215 q 132 1122 178 1143 q 115 915 119 933 l 121 892 q 109 627 121 874 q 161 507 109 507 q 184 466 184 481 l 132 466 q 115 431 115 460 l 115 391 q 121 386 115 386 q 115 368 115 374 q 184 -23 115 220 q 208 -69 191 -51 l 208 -104 q 248 -241 208 -164 q 259 -231 259 -241 l 259 -150 q 276 23 259 -115 l 288 17 l 282 -12 q 328 -178 282 -122 l 340 -178 q 380 -109 353 -178 l 386 -109 q 472 -345 438 -345 l 477 -345 q 576 178 547 -60 q 570 224 576 193 q 576 380 576 305 l 576 431 q 736 570 606 467 q 812 454 758 508 q 903 535 903 454 q 909 581 903 559 q 903 598 903 592 q 915 662 915 648 l 926 662 q 1002 576 945 576 q 1082 829 1065 759 q 1151 892 1140 857 l 1197 996 q 1203 1174 1203 1120 l 1208 1174 l 1203 1185 l 1203 1243 q 1208 1249 1203 1249 l 1203 1260 l 1203 1324 q 1168 1398 1203 1364 q 1192 1542 1173 1480 q 1076 1646 1162 1606 q 903 1709 941 1709 l 886 1709 q 743 1674 784 1674 m 821 1235 l 884 1235 l 884 1225 q 673 899 884 1105 q 589 866 661 899 l 578 887 l 578 1066 q 821 1235 578 1175 z "},"Q":{"ha":1451,"x_min":0,"x_max":1451,"o":"m 736 1819 q 938 1674 836 1819 q 1053 1588 983 1674 q 1192 1433 1139 1433 q 1289 1295 1258 1396 q 1335 1088 1335 1135 l 1335 1076 q 1404 956 1379 1051 l 1428 875 q 1410 720 1420 739 q 1416 656 1410 707 q 1404 380 1416 605 l 1410 351 q 1352 69 1398 174 q 1324 17 1347 69 q 1421 -155 1351 -45 q 1451 -282 1451 -249 l 1451 -288 q 1341 -409 1451 -381 l 1335 -409 q 1283 -391 1293 -391 q 1301 -454 1301 -431 l 1301 -466 q 1174 -593 1286 -593 q 944 -449 1107 -593 q 915 -409 915 -424 q 690 -518 745 -518 q 500 -409 500 -463 q 328 -345 435 -409 q 271 -259 297 -259 q 155 -115 155 -208 q 81 -12 155 -99 q 23 224 38 109 q 46 334 23 237 q 0 581 0 467 q 35 834 0 606 q 28 869 35 839 q 63 972 28 886 q 236 1416 63 1116 q 454 1744 313 1659 q 736 1819 616 1819 m 167 938 l 178 921 l 178 915 q 138 875 138 878 l 138 834 q 144 829 138 829 q 104 576 138 812 q 155 340 121 416 q 132 218 132 245 l 132 213 q 201 12 166 12 q 224 -12 201 3 q 213 69 213 51 l 213 75 l 218 75 l 236 17 l 230 5 l 271 -138 q 357 -173 322 -173 q 403 -104 403 -123 l 414 -104 q 553 -276 440 -276 l 576 -276 q 685 -213 623 -237 q 766 -109 728 -170 q 880 -241 827 -147 q 1047 -357 1022 -357 l 1053 -345 l 1053 -334 q 984 -184 1053 -323 l 979 -144 q 1053 -161 1053 -153 l 1065 -155 l 1076 -155 l 1088 -161 l 1088 -150 q 1065 -69 1065 -90 q 1168 -161 1087 -71 l 1203 -167 l 1203 -161 q 1099 63 1203 -87 q 1059 161 1099 79 l 1059 167 q 1139 305 1104 197 l 1162 472 l 1157 495 q 1168 771 1157 561 q 1162 834 1162 802 q 1174 915 1174 911 q 1168 932 1174 921 q 1174 979 1174 964 q 1093 1145 1174 1096 q 1076 1151 1082 1151 l 1076 1208 q 1088 1215 1088 1208 q 996 1461 1046 1461 q 892 1542 916 1506 q 743 1715 800 1697 q 460 1617 614 1715 q 317 1335 401 1565 q 167 938 167 1093 m 696 1111 q 748 863 705 863 q 794 806 794 812 l 794 754 q 800 679 794 717 q 766 512 781 512 q 685 547 729 547 l 667 547 q 720 311 720 411 q 696 271 706 271 q 662 357 687 271 q 593 530 608 414 q 576 627 583 560 q 581 650 581 637 l 581 667 l 576 679 q 599 708 599 679 l 581 743 q 662 898 662 859 q 639 944 662 918 l 639 949 q 690 1111 671 1076 l 696 1111 z "},"R":{"ha":1634,"x_min":0,"x_max":1634,"o":"m 979 1784 q 1192 1669 1055 1784 q 1306 1571 1222 1611 q 1364 1473 1329 1571 q 1502 1237 1453 1473 q 1468 903 1502 1171 l 1491 834 q 1439 673 1456 708 l 1444 616 l 1444 576 q 1370 420 1444 460 q 1335 414 1365 420 q 1451 155 1335 368 q 1634 -357 1634 -236 l 1634 -363 q 1554 -530 1609 -530 q 1491 -547 1515 -547 q 1375 -507 1462 -547 l 1375 -512 q 1306 -610 1354 -610 q 1255 -627 1306 -619 q 1088 -495 1160 -627 q 875 -231 1017 -495 q 840 -190 846 -190 q 783 -264 824 -264 l 720 -374 q 610 -414 680 -397 q 524 -391 607 -414 l 524 -409 l 530 -444 q 403 -616 500 -616 q 380 -627 403 -623 q 248 -500 281 -627 q 138 -444 170 -486 q 46 -35 83 -299 q 28 121 28 66 l 28 236 q 35 241 28 241 q 0 374 0 347 q 46 731 0 458 q 35 794 46 739 q 63 863 51 863 q 52 926 52 886 l 52 932 q 58 996 52 956 q 23 1099 23 1059 q 28 1283 23 1128 l 12 1421 l 12 1428 q 86 1554 12 1520 q 184 1577 96 1554 l 196 1571 q 328 1640 262 1597 q 454 1681 411 1681 q 576 1646 576 1659 q 979 1784 890 1784 m 547 1473 l 547 1531 q 449 1571 524 1571 q 208 1456 425 1571 q 178 1468 189 1468 l 115 1450 l 115 1428 l 138 1278 q 132 1111 132 1184 l 132 1093 q 167 1030 132 1071 q 155 915 167 1013 q 184 846 184 851 q 144 800 176 846 q 155 736 147 736 q 109 374 109 489 l 109 368 q 144 241 109 347 q 132 207 132 223 l 132 178 q 224 -386 132 -12 l 236 -391 q 276 -311 276 -378 l 276 -299 q 271 -236 276 -275 q 276 -219 276 -225 q 264 -132 264 -163 q 322 17 299 -71 l 334 23 q 477 -173 334 -173 q 524 -115 515 -173 q 587 -46 566 -46 q 604 -29 604 -46 q 576 386 604 -13 q 610 431 581 404 q 690 253 636 431 q 736 201 709 217 q 834 75 736 102 q 863 46 848 75 l 863 35 q 812 46 820 46 l 812 40 q 926 -115 812 31 q 1093 -374 1067 -351 q 1111 -391 1093 -382 l 1116 -391 q 1134 -357 1134 -386 q 1116 -299 1122 -299 q 1122 -282 1122 -288 l 1122 -241 q 1180 -259 1152 -259 l 1220 -259 l 1220 -253 q 1162 -138 1220 -210 l 1162 -132 q 1341 -311 1331 -311 l 1358 -311 q 1387 -231 1383 -311 q 1180 299 1387 -104 q 1099 477 1173 299 q 1025 650 1099 510 l 1128 690 q 1185 644 1162 644 q 1197 708 1192 653 l 1192 789 l 1238 956 l 1238 972 q 1180 1019 1202 1019 l 1180 1030 q 1226 1059 1207 1030 l 1226 1111 q 1255 1370 1249 1243 q 1151 1514 1226 1514 q 1105 1611 1133 1535 q 984 1674 994 1674 l 967 1674 q 616 1525 616 1577 q 547 1473 564 1473 m 814 1166 q 894 1092 814 1126 l 897 1023 q 805 903 864 997 l 717 854 q 603 894 675 881 q 542 933 603 903 q 814 1166 650 1166 z "},"S":{"ha":1565,"x_min":0,"x_max":1565,"o":"m 996 1778 l 1088 1778 q 1260 1727 1225 1778 q 1295 1651 1280 1651 q 1410 1571 1410 1631 q 1421 1519 1421 1550 q 1381 1421 1412 1476 q 1468 1283 1457 1359 l 1468 1272 q 1387 1070 1434 1070 q 1255 1019 1357 1050 q 1059 921 1255 987 l 1053 921 q 1002 932 1016 932 l 990 932 q 1059 898 991 924 q 1306 702 1208 810 q 1461 507 1461 604 q 1554 230 1502 507 q 1565 115 1565 125 q 1451 -241 1531 -72 q 1352 -334 1417 -334 q 1324 -345 1352 -345 q 1226 -276 1226 -318 q 1203 -271 1216 -271 q 1128 -357 1183 -329 q 777 -466 1118 -357 q 731 -472 736 -472 q 696 -466 726 -472 q 477 -512 559 -512 l 460 -512 q 248 -391 248 -475 q 167 -357 236 -378 q 115 -288 167 -348 q 58 -241 115 -241 q 0 -138 0 -198 q 81 -6 0 -82 q 46 75 61 -6 q 218 241 46 154 q 414 345 239 277 q 484 408 481 396 l 484 420 q 386 512 399 512 q 299 598 386 530 q 248 644 299 609 q 196 829 229 644 q 150 869 196 848 q 98 1105 98 953 q 201 1565 120 1525 q 576 1715 269 1629 q 616 1721 583 1721 l 622 1721 l 662 1715 q 996 1778 677 1759 m 673 1588 l 662 1588 q 627 1611 662 1611 l 599 1611 q 248 1444 248 1514 q 208 1105 208 1305 l 208 1099 q 224 944 208 1012 l 253 944 q 276 990 276 951 l 282 990 q 340 708 314 708 q 426 627 349 708 q 644 484 551 597 q 650 477 650 484 l 650 466 q 593 391 623 416 q 507 282 578 341 q 322 190 450 238 q 150 69 150 73 q 224 46 195 46 l 230 46 q 397 127 243 46 q 489 155 458 150 l 489 150 q 374 98 489 119 q 224 -23 268 40 q 104 -138 104 -130 q 115 -150 105 -150 l 196 -150 q 201 -144 201 -150 l 213 -150 l 230 -150 q 328 -115 321 -115 q 259 -201 273 -163 q 208 -231 208 -216 l 208 -241 q 322 -276 307 -276 q 518 -236 415 -276 q 558 -231 541 -231 q 593 -236 589 -236 q 863 -155 692 -216 q 984 -35 984 -142 q 1047 81 1033 39 l 1059 81 l 1059 52 q 1093 -40 1059 -20 l 1099 -40 q 1134 46 1109 -40 q 1157 144 1151 46 l 1174 155 q 1192 104 1182 104 l 1185 81 q 1192 23 1185 53 q 1185 -86 1185 -33 l 1185 -109 q 1289 121 1225 -77 q 1318 230 1309 230 q 1232 558 1289 558 q 1203 581 1203 575 q 1215 644 1215 630 q 932 829 1035 817 l 921 829 l 886 806 q 869 840 869 811 l 869 880 q 667 1128 667 1068 l 673 1128 q 783 1168 783 1164 l 812 1162 l 834 1162 q 869 1215 834 1178 l 875 1215 q 903 1162 881 1215 l 915 1157 q 1065 1243 956 1157 q 1203 1312 1203 1278 q 1220 1404 1203 1324 q 1070 1537 1184 1461 q 1059 1571 1059 1556 q 1174 1646 1114 1583 l 1174 1657 q 1162 1669 1174 1669 l 967 1669 q 702 1611 702 1654 l 673 1588 z "},"T":{"ha":1508,"x_min":0,"x_max":1508,"o":"m 1168 1864 q 1329 1738 1265 1864 q 1451 1651 1414 1718 l 1473 1577 q 1439 1450 1439 1489 q 1508 1329 1472 1450 q 1473 1243 1487 1266 l 1479 1203 l 1479 1185 q 1416 1070 1459 1070 q 1226 990 1313 1040 q 1174 979 1188 979 l 1128 979 q 1145 886 1145 900 q 1122 829 1128 829 q 1145 771 1141 771 q 1128 472 1138 538 q 1151 317 1145 414 q 1145 271 1145 275 q 1157 207 1151 219 q 1151 155 1151 176 l 1157 115 q 1128 -29 1144 33 q 996 -386 1053 -386 q 921 -472 939 -386 q 812 -518 873 -518 q 766 -507 774 -507 q 667 -553 725 -553 q 558 -484 600 -543 q 512 -420 535 -420 q 340 -208 451 -420 l 299 -81 q 334 35 311 -28 q 317 115 317 98 q 328 241 322 241 q 311 380 311 358 l 311 518 q 351 627 311 582 q 305 783 322 627 l 305 829 l 299 829 l 288 823 q 173 921 173 850 l 167 956 q 35 1082 35 956 l 63 1203 q 17 1306 17 1246 q 28 1352 28 1350 q 0 1444 0 1396 q 271 1681 0 1574 q 449 1738 338 1738 l 500 1738 q 570 1727 570 1737 q 696 1773 654 1771 q 789 1761 772 1761 q 903 1767 852 1767 q 1168 1864 903 1803 m 921 1651 l 892 1657 l 869 1657 q 783 1651 833 1657 q 685 1663 731 1663 l 587 1617 q 466 1634 562 1629 q 241 1548 376 1634 q 104 1444 182 1548 l 104 1438 q 150 1381 104 1426 l 150 1375 q 127 1301 127 1306 q 218 1243 127 1261 l 218 1237 q 138 1065 138 1127 l 167 1065 l 340 1093 q 466 1134 389 1116 l 466 1122 l 420 1105 l 420 1053 q 426 1047 420 1047 q 414 984 421 1036 q 420 932 420 953 q 409 840 420 906 l 414 800 l 409 771 q 460 650 413 709 q 466 627 466 640 l 466 558 q 414 530 414 551 q 420 408 420 454 l 414 368 q 431 264 431 301 q 426 92 426 118 q 443 12 443 54 l 409 -69 q 535 -317 419 -165 l 541 -317 l 541 -264 q 570 -109 557 -264 q 604 58 604 35 l 604 63 q 599 127 604 87 q 616 155 606 155 q 622 46 622 64 q 599 -63 599 -26 q 639 -167 639 -141 q 679 -282 648 -175 l 685 -282 q 708 -208 704 -282 q 766 -150 731 -208 q 812 -161 787 -161 q 898 178 852 -30 q 903 322 903 235 l 903 340 q 892 403 903 380 q 903 437 903 427 q 880 598 898 519 q 892 783 892 690 l 892 834 l 898 892 q 823 956 823 949 q 898 1019 885 996 q 875 1105 886 1080 q 892 1208 884 1116 l 921 1208 q 967 1220 946 1208 q 1019 1215 998 1215 l 1047 1215 q 1232 1295 1085 1249 l 1232 1301 l 1226 1358 l 1255 1468 q 1192 1554 1192 1513 l 1185 1583 q 1226 1709 1185 1640 q 1185 1755 1190 1755 l 1162 1755 q 938 1663 968 1712 q 921 1651 921 1657 z "},"U":{"ha":1514,"x_min":0,"x_max":1514,"o":"m 420 1790 q 558 1663 507 1790 q 685 1554 658 1663 l 690 1554 q 800 1634 690 1608 l 812 1634 l 892 1617 q 1002 1657 943 1655 q 1168 1571 1098 1641 q 1301 1461 1193 1518 q 1381 1318 1347 1410 q 1514 1042 1472 1318 l 1508 1042 l 1514 1030 l 1514 990 q 1491 909 1514 958 l 1496 852 l 1496 800 q 1479 685 1496 766 q 1514 587 1496 656 q 1444 236 1461 391 l 1387 92 q 1398 35 1398 46 q 1260 -224 1389 -73 q 1134 -351 1208 -351 q 1111 -357 1134 -357 l 1099 -351 q 967 -454 1095 -374 l 857 -489 l 846 -484 q 731 -535 772 -535 q 581 -444 645 -518 q 570 -414 570 -425 l 530 -420 q 391 -345 391 -385 q 340 -276 347 -276 q 115 75 243 -276 q 35 241 35 138 q 5 368 30 241 q 12 414 12 400 q 0 477 12 447 q 5 553 0 481 q 0 667 5 568 l 5 690 q 0 743 0 722 q 121 1577 77 1577 q 178 1634 178 1615 q 282 1715 210 1715 q 357 1773 302 1715 q 420 1790 411 1790 m 351 1542 l 299 1611 l 282 1611 q 271 1560 271 1568 q 276 1554 271 1554 l 271 1525 l 276 1456 l 264 1450 q 208 1514 224 1506 q 150 1134 188 1514 l 127 990 l 132 979 q 109 720 109 787 l 109 512 q 121 420 109 445 l 115 386 q 196 155 136 155 q 386 -184 323 -184 l 397 -184 q 449 -92 419 -184 l 454 -92 q 500 -201 463 -92 q 604 -299 566 -299 q 679 -213 679 -231 l 690 -213 q 720 -248 690 -231 q 903 -127 783 -248 q 944 -63 914 -93 q 979 -121 962 -121 l 990 -121 q 1076 28 1011 -60 q 1151 173 1151 109 q 1128 236 1128 218 q 1192 357 1128 245 q 1260 708 1215 500 l 1260 720 q 1226 800 1260 739 q 1249 932 1249 884 l 1249 956 q 1243 1036 1249 987 q 1260 1116 1260 1074 l 1260 1185 q 1203 1347 1239 1347 l 1185 1347 q 1174 1301 1185 1337 l 1162 1301 q 984 1548 1126 1548 q 961 1531 961 1539 l 961 1491 q 1013 1364 961 1450 l 1013 1329 q 869 1508 954 1388 q 800 1531 812 1531 q 754 1347 779 1531 q 789 1047 767 1143 l 783 1007 l 783 886 q 789 794 783 853 l 783 783 q 789 766 789 772 q 783 748 789 760 q 806 633 806 657 q 720 363 767 445 q 685 241 685 273 l 679 241 q 564 507 564 481 q 558 530 558 507 l 593 731 q 610 984 610 861 q 599 1162 599 1145 q 610 1220 599 1187 l 599 1289 l 616 1433 q 507 1491 583 1468 q 426 1681 445 1658 l 414 1681 q 368 1588 395 1681 q 351 1542 368 1546 z "},"V":{"ha":1657,"x_min":0,"x_max":1657,"o":"m 1301 1957 q 1433 1836 1375 1957 q 1548 1750 1548 1805 q 1577 1669 1562 1750 l 1577 1634 q 1657 1444 1633 1634 l 1657 1410 q 1560 1024 1657 1352 q 1404 541 1439 610 q 1364 466 1364 497 q 1381 397 1375 441 q 1318 132 1358 229 q 1226 -127 1278 33 q 1174 -231 1220 -127 q 1047 -432 1083 -345 q 932 -489 991 -488 l 909 -489 l 898 -484 q 812 -650 870 -650 q 766 -667 766 -662 q 656 -587 656 -637 q 622 -535 630 -535 q 449 -231 499 -535 q 397 -178 449 -199 q 317 -18 374 -150 q 241 253 277 38 q 167 541 241 313 l 173 553 l 173 558 q 115 806 120 682 q 46 1174 46 1085 q 12 1364 46 1200 q 0 1514 12 1403 q 98 1651 0 1627 q 213 1773 115 1773 q 345 1681 292 1773 q 437 1727 379 1715 q 495 1709 495 1716 l 530 1721 q 685 1588 602 1721 q 840 1410 779 1588 l 846 1410 q 949 1686 846 1417 q 1082 1778 996 1778 q 1099 1773 1093 1773 q 1220 1933 1116 1818 q 1301 1957 1242 1957 m 1099 1525 q 1082 1565 1086 1525 q 1088 1640 1088 1636 l 1082 1669 l 1070 1669 q 898 1208 1034 1669 l 898 1197 q 926 1099 898 1184 l 915 1093 l 869 1093 l 869 1070 q 771 690 869 1039 l 766 690 q 702 979 702 905 q 644 1059 684 1025 l 633 1099 q 639 1185 639 1149 q 558 1577 629 1548 q 530 1611 550 1600 l 518 1611 q 507 1565 507 1584 q 449 1617 458 1617 l 431 1617 q 368 1433 403 1433 q 345 1410 368 1410 q 271 1588 271 1573 q 218 1663 271 1632 l 213 1663 q 196 1629 203 1663 q 230 1312 196 1520 l 230 1301 l 224 1301 l 161 1514 q 121 1548 158 1514 q 109 1537 109 1546 l 109 1491 q 155 1192 121 1320 l 155 1128 q 150 1122 155 1122 q 213 817 167 1099 q 241 662 227 793 q 322 593 258 621 l 334 576 q 276 547 334 567 l 276 541 q 374 115 343 346 q 420 17 393 54 l 466 -98 l 477 -98 q 484 -63 477 -72 q 460 40 475 22 q 466 58 466 52 q 512 -69 477 58 q 610 -414 581 -348 l 627 -426 l 633 -426 q 662 -208 650 -384 q 702 -132 702 -144 l 713 -132 l 713 -155 q 783 -253 728 -253 l 800 -253 q 875 -132 830 -235 q 984 52 972 -17 q 1065 271 1008 73 q 1128 530 1128 400 l 1128 541 q 1105 598 1128 580 q 1168 720 1153 713 q 1238 921 1195 759 q 1352 1306 1318 1149 q 1410 1554 1410 1474 l 1410 1565 q 1381 1669 1404 1669 l 1364 1669 q 1295 1479 1364 1616 l 1283 1479 q 1329 1807 1329 1748 q 1289 1853 1319 1833 q 1238 1796 1246 1796 q 1105 1525 1181 1702 l 1099 1525 z "},"W":{"ha":1824,"x_min":0,"x_max":1824,"o":"m 1295 1778 q 1404 1721 1347 1778 q 1514 1778 1463 1778 q 1634 1651 1619 1778 q 1652 1657 1640 1651 q 1767 1554 1767 1636 q 1796 1335 1778 1554 q 1790 1278 1790 1305 q 1824 1111 1824 1181 q 1744 909 1817 1054 q 1721 690 1729 886 q 1727 627 1727 670 q 1692 443 1713 521 q 1565 69 1642 342 q 1548 46 1551 46 q 1560 0 1560 25 q 1502 -201 1560 -67 q 1272 -547 1443 -547 q 1122 -512 1207 -524 q 1036 -391 1066 -476 q 926 -317 964 -391 l 915 -317 q 869 -363 902 -363 l 875 -374 l 875 -391 q 812 -495 875 -474 q 748 -518 812 -504 q 587 -432 587 -488 q 541 -374 562 -374 q 437 -282 486 -374 q 397 -132 397 -199 q 264 35 296 -132 q 92 811 144 515 q 104 875 104 864 q 40 1157 81 875 q 0 1416 23 1317 q 115 1560 0 1537 l 121 1560 q 190 1537 174 1550 q 253 1681 237 1669 q 345 1721 284 1721 q 484 1623 420 1721 q 633 1496 572 1623 q 771 1370 725 1496 q 840 1393 808 1393 q 990 1272 947 1393 q 1030 1255 990 1266 l 1030 1301 q 1025 1306 1030 1306 q 1145 1629 1025 1376 q 1295 1773 1200 1773 l 1295 1778 m 1134 1312 q 1145 1197 1134 1296 q 1076 1082 1145 1157 q 1030 863 1076 932 q 1002 800 1011 800 l 996 811 q 1013 880 1013 866 l 1013 892 l 972 984 q 909 1134 951 1066 q 852 1283 895 1283 l 829 1283 q 777 1157 829 1257 q 754 1059 754 1109 q 777 1007 754 1048 q 696 892 758 958 q 593 1278 685 919 l 599 1289 q 495 1508 544 1478 q 484 1519 495 1519 l 477 1519 q 466 1508 466 1518 l 466 1502 q 484 1375 466 1444 l 472 1375 q 351 1611 400 1585 l 328 1611 q 248 1438 311 1516 q 230 1421 239 1438 l 230 1410 q 241 1341 231 1341 q 236 1324 236 1330 q 132 1450 132 1408 l 121 1450 q 109 1438 109 1449 l 109 1393 q 161 1082 119 1385 q 196 932 174 944 l 241 961 l 253 961 q 201 806 248 928 q 380 5 253 497 q 403 -29 395 -29 l 414 -29 l 426 104 l 420 115 q 426 155 426 138 l 437 155 q 512 -98 489 -40 l 507 -109 l 507 -155 q 581 -276 528 -276 l 627 -276 l 627 -271 q 616 -208 627 -256 q 622 -167 622 -184 l 616 -155 q 622 -138 622 -144 q 616 -132 616 -138 l 627 -132 q 639 -150 627 -150 l 656 -150 q 725 -23 703 -150 q 789 92 789 72 q 794 150 794 122 l 794 201 q 789 264 794 225 q 823 351 808 351 q 834 328 824 328 l 829 299 l 829 184 q 875 115 829 153 l 869 92 q 949 -69 869 58 q 1030 -288 984 -206 l 1059 -288 q 1099 -219 1087 -263 l 1111 -219 q 1139 -311 1120 -311 q 1238 -138 1238 -233 q 1306 75 1255 -43 l 1306 155 l 1278 190 l 1278 195 q 1341 276 1341 258 q 1381 431 1358 315 q 1468 690 1468 628 q 1479 748 1468 722 q 1473 823 1479 751 q 1537 1134 1473 1073 q 1577 1249 1577 1221 q 1542 1398 1577 1295 l 1542 1421 q 1548 1468 1542 1445 q 1525 1606 1539 1600 l 1531 1634 l 1531 1640 l 1525 1669 l 1508 1669 q 1404 1525 1501 1669 q 1347 1335 1358 1387 l 1335 1335 q 1347 1433 1335 1341 l 1341 1456 q 1358 1542 1358 1514 q 1352 1560 1352 1554 l 1341 1560 q 1306 1496 1329 1559 l 1301 1496 l 1301 1519 q 1318 1657 1301 1591 l 1301 1669 q 1197 1473 1251 1645 q 1134 1312 1134 1372 z "},"X":{"ha":1778,"x_min":0,"x_max":1778,"o":"m 420 1790 q 576 1686 496 1790 q 673 1617 589 1655 q 852 1329 745 1533 l 857 1329 q 1019 1623 913 1460 q 1151 1738 1105 1738 q 1174 1744 1164 1738 q 1289 1646 1289 1721 l 1318 1651 l 1387 1651 q 1508 1715 1455 1715 q 1623 1600 1623 1686 l 1623 1588 l 1640 1588 q 1761 1473 1746 1588 q 1773 1393 1767 1473 q 1548 932 1683 1128 q 1428 713 1447 722 q 1398 702 1409 702 l 1398 673 q 1341 524 1398 633 q 1519 248 1451 368 q 1640 75 1556 215 q 1778 -173 1756 -62 l 1750 -253 q 1767 -328 1767 -314 l 1767 -345 q 1640 -500 1767 -475 l 1606 -500 q 1428 -386 1514 -500 l 1393 -437 q 1301 -466 1339 -466 q 1139 -368 1139 -417 q 1076 -305 1105 -318 q 938 -132 987 -248 l 938 -127 q 852 -288 894 -127 q 690 -472 793 -418 q 587 -512 655 -502 q 489 -437 489 -490 l 414 -414 q 311 -495 405 -414 q 248 -512 258 -512 q 138 -409 138 -496 q 132 -386 132 -409 q 138 -380 138 -386 l 121 -380 q 115 -386 115 -380 q 12 -328 64 -386 q 0 -264 0 -288 q 40 -155 0 -249 q 115 5 40 -84 q 259 305 182 191 q 311 420 311 341 q 409 587 380 497 q 420 604 420 587 q 345 783 380 679 q 196 972 309 797 q 63 1237 77 1097 q 35 1370 46 1300 q 104 1473 35 1434 l 161 1479 q 218 1468 214 1468 q 328 1571 285 1571 q 299 1674 303 1672 q 403 1784 318 1784 q 420 1790 403 1790 m 409 1681 q 484 1398 443 1529 l 472 1398 q 443 1461 456 1398 q 374 1479 395 1479 q 299 1393 346 1475 q 271 1335 271 1393 q 282 1272 271 1321 l 276 1272 q 178 1364 263 1272 q 144 1375 159 1375 l 144 1370 q 264 1047 163 1169 q 368 903 334 980 q 449 806 449 838 q 547 621 507 640 q 484 495 547 612 q 409 368 484 466 q 374 253 401 262 l 357 253 q 184 -86 332 245 q 132 -224 156 -86 l 104 -271 l 104 -276 l 109 -276 q 271 -92 215 -196 l 322 -52 l 328 -52 l 294 -132 l 305 -190 l 322 -190 q 368 -144 328 -190 l 374 -144 q 397 -213 378 -213 l 409 -213 q 431 -184 431 -201 l 443 -184 q 449 -271 449 -241 l 449 -276 l 454 -276 q 622 -109 564 -218 q 667 35 622 -86 q 662 75 662 59 q 760 121 734 75 l 823 218 q 909 46 857 180 l 921 40 l 949 40 q 961 52 961 40 l 961 104 q 972 115 963 115 l 979 115 q 1088 -178 979 -1 q 1180 -231 1131 -231 l 1180 -208 q 1145 -98 1145 -115 l 1157 -98 q 1232 -161 1194 -161 l 1243 -161 q 1278 -121 1278 -161 q 1295 -52 1295 -69 l 1393 -208 q 1468 -264 1436 -264 l 1496 -264 q 1519 -241 1506 -264 l 1519 -208 q 1387 46 1519 -146 l 1387 52 l 1508 -81 q 1525 -40 1525 -60 q 1387 173 1525 -9 q 1260 357 1387 188 q 1099 610 1260 370 q 1082 662 1082 652 q 1151 800 1151 781 l 1151 817 q 1128 869 1128 848 l 1128 875 q 1249 984 1249 935 q 1433 1306 1328 1143 q 1508 1496 1473 1383 q 1525 1519 1511 1496 l 1514 1606 q 1416 1548 1501 1606 q 1393 1542 1406 1542 q 1347 1548 1369 1542 q 1192 1485 1267 1548 l 1185 1485 q 1203 1565 1203 1532 q 1185 1611 1185 1594 l 1185 1634 l 1168 1634 q 1047 1456 1077 1537 q 921 1225 1021 1432 q 840 1082 857 1092 q 576 1491 576 1454 l 460 1663 q 414 1681 425 1681 l 409 1681 z "},"Y":{"ha":1784,"x_min":0,"x_max":1784,"o":"m 403 1842 q 570 1709 497 1842 q 754 1531 648 1709 q 863 1358 804 1490 l 869 1358 q 1019 1692 972 1563 q 1128 1750 1071 1750 q 1174 1738 1158 1738 q 1278 1813 1208 1813 l 1324 1801 l 1381 1807 q 1485 1727 1453 1807 q 1537 1692 1485 1701 q 1600 1651 1537 1686 q 1681 1565 1628 1565 q 1778 1387 1778 1485 q 1784 1364 1784 1387 q 1508 840 1784 1280 q 1444 766 1444 810 q 1329 547 1364 646 q 1347 264 1347 365 l 1347 230 q 1301 -161 1324 -161 q 1215 -305 1262 -305 q 1134 -500 1203 -317 q 1036 -570 1103 -551 l 996 -576 q 823 -466 823 -545 q 748 -489 764 -489 q 633 -386 633 -469 q 622 -357 622 -386 q 484 -190 484 -357 q 443 690 484 -64 q 454 743 454 718 l 363 903 q 236 1065 279 952 q 132 1232 157 1150 q 12 1428 12 1360 q 0 1468 0 1428 q 104 1583 0 1547 q 201 1651 143 1651 q 248 1727 201 1663 q 391 1842 248 1829 l 403 1842 m 357 1732 l 357 1681 q 299 1617 353 1666 q 288 1548 299 1594 l 218 1554 q 196 1531 210 1554 l 196 1519 q 201 1421 196 1489 l 196 1421 q 109 1473 140 1473 l 109 1461 q 230 1278 117 1400 q 345 1088 249 1209 q 460 984 384 984 l 466 984 l 495 990 l 495 984 q 466 932 466 954 q 570 766 565 766 l 547 667 q 570 311 558 648 l 564 299 q 593 -132 576 256 l 587 -155 q 610 -253 593 -253 l 616 -253 q 673 -109 673 -224 q 696 -23 679 -109 l 702 -23 q 817 -328 755 -328 q 869 -340 817 -336 q 984 -58 925 -340 q 990 -23 984 -54 q 1013 -81 999 -23 l 1036 -81 q 1093 248 1076 3 q 1099 345 1099 315 q 1076 667 1092 667 q 1220 967 1107 781 l 1220 1019 q 1295 1047 1220 1029 q 1519 1450 1445 1292 q 1531 1479 1531 1450 l 1531 1519 q 1479 1600 1531 1555 l 1473 1600 l 1428 1565 l 1421 1565 l 1421 1588 l 1416 1588 q 1364 1514 1406 1550 l 1364 1519 q 1387 1669 1387 1636 l 1387 1692 q 1375 1704 1387 1704 q 1249 1554 1312 1687 l 1243 1554 l 1243 1565 q 1283 1704 1283 1650 l 1278 1704 l 1139 1508 l 1134 1531 q 1139 1634 1139 1611 l 1128 1640 l 1111 1640 q 1019 1428 1083 1544 q 944 1272 1019 1408 q 852 1076 882 1112 q 581 1531 701 1267 q 426 1727 557 1553 q 403 1732 416 1732 l 357 1732 z "},"Z":{"ha":1681,"x_min":0,"x_max":1681,"o":"m 1324 1727 q 1456 1657 1419 1707 q 1508 1588 1483 1588 q 1629 1450 1590 1588 l 1629 1444 q 1577 1329 1609 1377 q 1594 1266 1594 1291 l 1594 1255 q 1525 1070 1583 1177 q 1542 1007 1542 1021 q 1444 829 1542 975 q 1370 725 1419 725 q 1283 639 1370 705 l 1289 598 l 1289 581 q 1232 420 1289 550 l 1238 420 q 1416 484 1347 484 q 1531 368 1531 470 q 1669 259 1669 346 q 1681 201 1681 233 q 1634 92 1670 157 q 1617 23 1634 79 q 1681 -109 1660 12 q 1657 -208 1662 -205 q 1669 -276 1664 -276 q 1531 -420 1630 -420 q 1283 -403 1402 -403 l 1226 -403 l 1157 -409 l 1157 -403 l 1111 -414 q 1105 -409 1105 -414 q 990 -420 1075 -414 l 990 -414 q 880 -432 939 -432 q 800 -409 863 -432 q 547 -495 627 -473 q 426 -437 479 -477 q 345 -454 388 -454 l 340 -454 q 230 -368 243 -454 q 208 -322 214 -322 l 201 -322 q 196 -328 196 -322 q 104 -276 149 -328 q 86 -201 86 -248 l 86 -23 q 81 98 86 23 q 109 167 92 148 q 86 282 86 264 q 150 391 86 337 q 288 610 160 433 l 340 702 q 190 811 190 734 q 121 852 190 844 q 46 967 46 900 q 98 1059 67 1059 q 52 1197 86 1076 q 0 1352 35 1197 q 380 1560 0 1482 q 541 1594 479 1594 q 604 1583 574 1594 q 736 1634 675 1634 q 789 1623 762 1634 q 1134 1681 877 1645 q 1324 1727 1162 1696 m 794 1514 q 725 1531 731 1531 q 599 1461 654 1485 q 541 1491 547 1491 q 109 1358 216 1421 l 109 1352 q 201 1220 109 1241 l 201 1215 l 167 1197 l 167 1192 q 236 1088 167 1102 q 282 1059 282 1074 q 155 979 245 1008 l 155 961 q 241 932 155 944 q 720 1105 471 1031 l 720 1099 q 553 834 602 892 q 547 829 547 834 q 599 766 547 802 l 599 760 q 547 725 599 732 q 495 736 509 736 l 484 736 q 420 621 469 730 q 241 345 277 410 q 196 288 241 321 q 241 104 196 231 l 236 104 q 213 109 223 104 q 190 104 203 104 l 190 81 q 196 17 190 56 l 190 5 q 196 0 190 0 l 190 -58 l 190 -219 l 224 -219 q 311 -155 255 -219 q 414 -253 370 -253 l 431 -253 q 771 -115 604 -190 l 789 -115 q 702 -155 789 -125 l 702 -178 q 743 -196 735 -196 q 857 -178 766 -196 l 869 -184 q 903 -173 903 -178 l 915 -178 q 1019 -167 928 -178 q 1025 -173 1025 -167 l 1065 -167 l 1174 -167 q 1393 -184 1291 -167 q 1416 -155 1393 -181 q 1410 -81 1416 -119 l 1416 -52 l 1410 -40 q 1433 17 1433 0 q 1381 86 1433 54 l 1335 144 l 1335 155 q 1398 276 1385 155 l 1433 328 q 1416 380 1428 380 q 1203 288 1379 375 q 1162 271 1190 271 q 1093 317 1124 317 l 1070 317 q 846 241 892 241 q 840 248 846 248 q 961 495 840 261 q 1042 713 1042 702 l 1042 720 q 1002 760 1042 760 l 1002 766 q 1151 921 1008 796 q 1197 956 1151 934 q 1295 1139 1197 1008 l 1260 1203 l 1260 1208 q 1318 1295 1260 1227 l 1318 1306 l 1312 1347 q 1347 1370 1335 1347 l 1347 1404 q 1243 1444 1322 1444 q 1375 1560 1375 1554 l 1375 1583 q 1329 1617 1352 1617 q 1025 1554 1315 1617 q 794 1514 844 1537 z "},"":{"ha":949,"x_min":0,"x_max":949,"o":"m 311 718 q 178 833 218 718 q 46 948 46 873 q 17 1173 21 948 q 0 1265 17 1181 q 23 1334 23 1324 q 12 1403 12 1374 q 35 1507 17 1475 l 28 1535 l 28 1547 q 207 1927 28 1683 q 414 2065 268 2024 l 426 2065 q 541 1978 541 2035 q 581 1927 559 1927 q 696 1783 674 1927 l 696 1742 q 736 1685 736 1704 q 766 1639 753 1639 q 898 1484 898 1590 q 949 1115 949 1308 q 863 845 897 845 q 771 787 863 814 q 679 822 749 787 q 639 833 656 833 q 357 724 585 833 q 311 718 316 718 m 644 989 l 650 989 q 731 920 650 937 q 766 897 731 916 l 771 897 q 840 1109 800 897 q 754 1535 825 1500 l 708 1535 q 673 1478 692 1478 l 662 1478 q 621 1524 662 1495 l 558 1524 q 593 1581 558 1530 l 593 1593 q 570 1829 593 1829 l 564 1829 q 385 1662 478 1815 q 282 1466 282 1508 q 259 1248 282 1399 q 299 1202 263 1248 l 299 1196 l 248 1133 q 271 891 264 1103 q 311 822 291 822 q 524 913 323 822 q 627 943 566 931 q 644 989 644 967 z "},"":{"ha":949,"x_min":0,"x_max":949,"o":"m 639 2065 q 771 1950 731 2065 q 903 1835 903 1910 q 932 1611 928 1835 q 949 1518 932 1602 q 926 1449 926 1459 q 938 1380 938 1409 q 915 1276 932 1308 l 921 1248 l 921 1236 q 743 857 921 1101 q 535 718 682 760 l 524 718 q 408 805 408 749 q 368 857 390 857 q 253 1000 275 857 l 253 1041 q 213 1098 213 1079 q 184 1144 197 1144 q 52 1299 52 1193 q 0 1668 0 1476 q 86 1938 53 1938 q 178 1996 86 1969 q 271 1961 201 1996 q 311 1950 294 1950 q 593 2060 364 1950 q 639 2065 633 2065 m 305 1794 l 299 1794 q 218 1864 299 1846 q 184 1887 218 1868 l 178 1887 q 109 1674 149 1887 q 195 1248 125 1283 l 241 1248 q 276 1305 258 1305 l 288 1305 q 328 1259 288 1288 l 391 1259 q 357 1202 391 1253 l 357 1190 q 380 954 357 954 l 385 954 q 564 1121 471 968 q 667 1317 667 1276 q 690 1535 667 1384 q 650 1581 686 1535 l 650 1588 l 702 1651 q 679 1892 685 1681 q 639 1961 659 1961 q 426 1870 627 1961 q 322 1841 383 1852 q 305 1794 305 1816 z "},"":{"ha":2279,"x_min":0,"x_max":2279,"o":"m 311 718 q 178 833 218 718 q 46 948 46 873 q 17 1173 21 948 q 0 1265 17 1181 q 23 1334 23 1324 q 12 1403 12 1374 q 35 1507 17 1475 l 28 1535 l 28 1547 q 207 1927 28 1683 q 414 2065 268 2024 l 426 2065 q 541 1978 541 2035 q 581 1927 559 1927 q 696 1783 674 1927 l 696 1742 q 736 1685 736 1704 q 766 1639 753 1639 q 898 1484 898 1590 q 949 1115 949 1308 q 863 845 897 845 q 771 787 863 814 q 679 822 749 787 q 639 833 656 833 q 357 724 585 833 q 311 718 316 718 m 644 989 l 650 989 q 731 920 650 937 q 766 897 731 916 l 771 897 q 840 1109 800 897 q 754 1535 825 1500 l 708 1535 q 673 1478 692 1478 l 662 1478 q 621 1524 662 1495 l 558 1524 q 593 1581 558 1530 l 593 1593 q 570 1829 593 1829 l 564 1829 q 385 1662 478 1815 q 282 1466 282 1508 q 259 1248 282 1399 q 299 1202 263 1248 l 299 1196 l 248 1133 q 271 891 264 1103 q 311 822 291 822 q 524 913 323 822 q 627 943 566 931 q 644 989 644 967 m 1640 718 q 1508 833 1548 718 q 1375 948 1375 873 q 1346 1173 1350 948 q 1329 1265 1346 1181 q 1352 1334 1352 1324 q 1341 1403 1341 1374 q 1364 1507 1346 1475 l 1358 1535 l 1358 1547 q 1536 1927 1358 1683 q 1744 2065 1597 2024 l 1755 2065 q 1870 1978 1870 2035 q 1910 1927 1889 1927 q 2026 1783 2003 1927 l 2026 1742 q 2066 1685 2066 1704 q 2095 1639 2082 1639 q 2227 1484 2227 1590 q 2279 1115 2279 1308 q 2193 845 2226 845 q 2100 787 2193 814 q 2008 822 2078 787 q 1968 833 1985 833 q 1686 724 1914 833 q 1640 718 1645 718 m 1973 989 l 1980 989 q 2060 920 1980 937 q 2095 897 2060 916 l 2100 897 q 2169 1109 2129 897 q 2083 1535 2154 1500 l 2037 1535 q 2003 1478 2021 1478 l 1991 1478 q 1950 1524 1991 1495 l 1887 1524 q 1922 1581 1887 1530 l 1922 1593 q 1899 1829 1922 1829 l 1893 1829 q 1714 1662 1807 1815 q 1611 1466 1611 1508 q 1588 1248 1611 1399 q 1628 1202 1592 1248 l 1628 1196 l 1577 1133 q 1600 891 1594 1103 q 1640 822 1620 822 q 1853 913 1652 822 q 1957 943 1895 931 q 1973 989 1973 967 z "},"":{"ha":2279,"x_min":0,"x_max":2279,"o":"m 639 2065 q 771 1950 731 2065 q 903 1835 903 1910 q 932 1611 928 1835 q 949 1518 932 1602 q 926 1449 926 1459 q 938 1380 938 1409 q 915 1276 932 1308 l 921 1248 l 921 1236 q 743 857 921 1101 q 535 718 682 760 l 524 718 q 408 805 408 749 q 368 857 390 857 q 253 1000 275 857 l 253 1041 q 213 1098 213 1079 q 184 1144 197 1144 q 52 1299 52 1193 q 0 1668 0 1476 q 86 1938 53 1938 q 178 1996 86 1969 q 271 1961 201 1996 q 311 1950 294 1950 q 593 2060 364 1950 q 639 2065 633 2065 m 305 1794 l 299 1794 q 218 1864 299 1846 q 184 1887 218 1868 l 178 1887 q 109 1674 149 1887 q 195 1248 125 1283 l 241 1248 q 276 1305 258 1305 l 288 1305 q 328 1259 288 1288 l 391 1259 q 357 1202 391 1253 l 357 1190 q 380 954 357 954 l 385 954 q 564 1121 471 968 q 667 1317 667 1276 q 690 1535 667 1384 q 650 1581 686 1535 l 650 1588 l 702 1651 q 679 1892 685 1681 q 639 1961 659 1961 q 426 1870 627 1961 q 322 1841 383 1852 q 305 1794 305 1816 m 1968 2065 q 2100 1950 2060 2065 q 2233 1835 2233 1910 q 2262 1611 2258 1835 q 2279 1518 2262 1602 q 2256 1449 2256 1459 q 2267 1380 2267 1409 q 2244 1276 2262 1308 l 2250 1248 l 2250 1236 q 2072 857 2250 1101 q 1864 718 2011 760 l 1853 718 q 1737 805 1737 749 q 1697 857 1719 857 q 1582 1000 1605 857 l 1582 1041 q 1542 1098 1542 1079 q 1513 1144 1526 1144 q 1381 1299 1381 1193 q 1329 1668 1329 1476 q 1415 1938 1382 1938 q 1508 1996 1415 1969 q 1600 1961 1530 1996 q 1640 1950 1623 1950 q 1922 2060 1693 1950 q 1968 2065 1963 2065 m 1634 1794 l 1628 1794 q 1548 1864 1628 1846 q 1513 1887 1548 1868 l 1508 1887 q 1438 1674 1478 1887 q 1525 1248 1454 1283 l 1571 1248 q 1605 1305 1587 1305 l 1617 1305 q 1657 1259 1617 1288 l 1721 1259 q 1686 1202 1721 1253 l 1686 1190 q 1709 954 1686 954 l 1714 954 q 1893 1121 1801 968 q 1997 1317 1997 1276 q 2020 1535 1997 1384 q 1980 1581 2016 1535 l 1980 1588 l 2031 1651 q 2008 1892 2014 1681 q 1968 1961 1988 1961 q 1755 1870 1956 1961 q 1651 1841 1712 1852 q 1634 1794 1634 1816 z "},"":{"ha":4220,"x_min":0,"x_max":4220,"o":"m 947 395 q 1025 277 1043 309 q 1023 205 1035 271 q 1084 70 1110 115 q 993 -170 1068 -39 l 984 -185 q 897 -268 968 -214 l 882 -326 q 626 -517 757 -467 q 485 -509 572 -533 q 451 -475 476 -503 l 438 -475 q 382 -410 378 -418 q 265 -382 360 -412 q 231 -349 253 -361 q 161 -334 178 -345 q 119 -198 77 -271 q 80 -128 140 -163 q 173 217 0 -82 q 176 235 176 222 q 193 252 186 241 l 227 311 l 253 344 l 248 347 l 258 354 l 284 398 q 531 562 438 615 q 574 543 553 555 l 584 538 q 601 521 595 531 q 687 498 627 519 q 777 413 741 467 q 896 411 817 394 q 947 395 904 406 m 803 285 l 781 304 q 684 307 762 315 q 690 364 703 340 l 623 409 q 558 413 610 416 l 549 431 l 494 463 q 325 262 448 460 q 317 260 320 265 l 304 227 q 277 190 284 193 q 159 -61 212 64 q 223 -52 165 -65 q 272 -106 262 -100 q 434 -113 322 -135 q 435 -193 399 -173 q 501 -238 474 -222 q 727 -90 669 -191 l 739 -70 q 748 5 729 -28 q 836 53 798 -13 q 916 273 942 258 q 897 297 921 281 l 887 302 q 803 285 884 304 m 2501 395 q 2579 277 2598 309 q 2578 205 2590 271 q 2639 70 2665 115 q 2547 -170 2623 -39 l 2539 -185 q 2452 -268 2522 -214 l 2437 -326 q 2180 -517 2311 -467 q 2040 -509 2127 -533 q 2005 -475 2030 -503 l 1993 -475 q 1938 -410 1933 -418 q 1820 -382 1915 -412 q 1786 -349 1808 -361 q 1715 -334 1733 -345 q 1674 -198 1632 -271 q 1634 -128 1695 -163 q 1727 217 1554 -82 q 1731 235 1730 222 q 1747 252 1741 241 l 1782 311 l 1807 344 l 1802 347 l 1813 354 l 1839 398 q 2086 562 1993 615 q 2129 543 2108 555 l 2139 538 q 2156 521 2150 531 q 2242 498 2182 519 q 2332 413 2296 467 q 2451 411 2372 394 q 2501 395 2458 406 m 2358 285 l 2336 304 q 2238 307 2316 315 q 2244 364 2258 340 l 2177 409 q 2113 413 2165 416 l 2104 431 l 2049 463 q 1879 262 2003 460 q 1872 260 1874 265 l 1859 227 q 1831 190 1839 193 q 1713 -61 1767 64 q 1778 -52 1721 -65 q 1827 -106 1816 -100 q 1988 -113 1876 -135 q 1989 -193 1954 -173 q 2056 -238 2028 -222 q 2281 -90 2223 -191 l 2293 -70 q 2302 5 2284 -28 q 2391 53 2353 -13 q 2471 273 2497 258 q 2452 297 2475 281 l 2441 302 q 2358 285 2438 304 m 4056 395 q 4133 277 4152 309 q 4132 205 4144 271 q 4194 70 4220 115 q 4102 -170 4178 -39 l 4093 -185 q 4006 -268 4077 -214 l 3992 -326 q 3735 -517 3866 -467 q 3594 -509 3682 -533 q 3560 -475 3585 -503 l 3547 -475 q 3492 -410 3487 -418 q 3375 -382 3470 -412 q 3341 -349 3362 -361 q 3269 -334 3288 -345 q 3229 -198 3187 -271 q 3189 -128 3249 -163 q 3282 217 3109 -82 q 3286 235 3285 222 q 3302 252 3295 241 l 3337 311 l 3362 344 l 3357 347 l 3368 354 l 3394 398 q 3640 562 3547 615 q 3683 543 3663 555 l 3693 538 q 3710 521 3705 531 q 3796 498 3736 519 q 3887 413 3851 467 q 4005 411 3927 394 q 4056 395 4013 406 m 3912 285 l 3891 304 q 3793 307 3870 315 q 3799 364 3812 340 l 3732 409 q 3668 413 3720 416 l 3659 431 l 3604 463 q 3434 262 3557 460 q 3426 260 3429 265 l 3414 227 q 3386 190 3394 193 q 3268 -61 3322 64 q 3333 -52 3275 -65 q 3381 -106 3370 -100 q 3543 -113 3432 -135 q 3544 -193 3509 -173 q 3611 -238 3583 -222 q 3836 -90 3778 -191 l 3848 -70 q 3857 5 3838 -28 q 3946 53 3908 -13 q 4025 273 4051 258 q 4006 297 4030 281 l 3996 302 q 3912 285 3992 304 z "},"'":{"ha":949,"x_min":0,"x_max":949,"o":"m 639 1995 q 771 1880 732 1995 q 903 1765 903 1840 q 932 1541 928 1765 q 949 1449 932 1532 q 926 1379 926 1389 q 938 1310 938 1339 q 915 1206 932 1238 l 921 1178 l 921 1166 q 743 787 921 1031 q 535 648 682 690 l 524 648 q 409 735 409 679 q 368 787 390 787 q 253 930 275 787 l 253 971 q 213 1028 213 1009 q 184 1074 197 1074 q 52 1230 52 1123 q 0 1598 0 1406 q 86 1868 53 1868 q 178 1926 86 1899 q 271 1891 201 1926 q 311 1880 294 1880 q 593 1990 365 1880 q 639 1995 634 1995 m 305 1725 l 299 1725 q 218 1794 299 1776 q 184 1817 218 1798 l 178 1817 q 109 1604 149 1817 q 196 1178 125 1213 l 241 1178 q 276 1236 258 1236 l 288 1236 q 328 1190 288 1218 l 391 1190 q 357 1132 391 1183 l 357 1120 q 380 884 357 884 l 386 884 q 564 1051 471 898 q 667 1247 667 1206 q 690 1466 667 1314 q 650 1512 686 1466 l 650 1518 l 702 1581 q 679 1822 685 1611 q 639 1891 659 1891 q 426 1800 627 1891 q 322 1771 383 1782 q 305 1725 305 1746 z "},"":{"ha":7056,"x_min":0,"x_max":6964,"o":"m 1020 857 q 1058 825 1058 847 q 1061 827 1061 825 q 1088 822 1081 822 q 1128 838 1112 838 q 1175 795 1155 838 q 1232 708 1219 795 q 1261 616 1232 682 l 1261 610 l 1264 610 q 1267 632 1267 625 q 1264 694 1267 652 q 1299 803 1275 803 q 1313 806 1304 806 l 1318 806 q 1356 795 1330 806 q 1392 808 1381 808 q 1435 806 1431 806 q 1481 819 1463 819 q 1660 686 1536 819 l 1660 684 l 1663 684 q 1712 727 1683 714 q 1812 833 1712 765 l 1828 836 l 1850 836 q 1926 784 1886 836 q 1972 730 1972 761 q 1983 719 1980 719 q 2024 749 1994 749 q 2048 746 2040 746 q 2102 806 2061 806 q 2151 770 2122 806 q 2203 727 2176 770 q 2246 686 2232 727 q 2271 692 2264 692 l 2273 692 q 2325 648 2307 692 q 2336 646 2330 646 l 2336 648 l 2333 667 q 2431 825 2380 825 l 2433 825 q 2466 806 2449 820 q 2504 825 2482 825 q 2544 784 2544 819 l 2544 781 q 2547 784 2547 781 q 2599 689 2599 784 q 2601 673 2601 675 q 2599 651 2599 663 q 2610 597 2610 620 l 2610 594 q 2580 513 2610 582 l 2574 456 l 2577 429 q 2525 252 2577 397 q 2517 228 2525 243 l 2520 209 q 2466 46 2488 82 q 2420 22 2442 22 q 2346 57 2346 36 q 2314 81 2338 81 q 2298 100 2300 100 l 2295 100 q 2284 87 2295 87 l 2284 76 q 2238 33 2284 40 q 2170 81 2193 33 q 2113 165 2135 81 q 2081 195 2093 165 q 1988 100 2018 100 q 1956 65 1979 81 q 1907 41 1956 50 q 1853 84 1881 41 l 1850 84 q 1809 71 1822 71 q 1755 117 1786 71 q 1698 182 1721 134 l 1695 182 q 1628 127 1678 127 l 1614 130 q 1549 73 1596 91 q 1459 43 1478 58 q 1438 38 1449 38 q 1400 54 1417 38 l 1386 52 q 1351 71 1368 52 q 1335 65 1346 71 l 1329 68 q 1289 57 1297 57 l 1289 60 q 1253 43 1272 49 q 1191 81 1191 57 q 1153 109 1188 87 q 1134 146 1134 138 q 1118 144 1132 146 q 1088 149 1111 144 q 1044 84 1076 84 l 1031 84 q 1009 90 1029 84 q 958 52 970 79 q 895 3 930 3 q 857 49 863 3 l 852 46 q 814 60 849 46 l 811 60 q 768 43 807 60 q 713 90 713 56 q 686 100 694 95 l 684 100 q 624 0 668 0 q 583 38 596 0 q 529 60 583 47 q 486 100 505 60 l 458 92 q 423 117 423 98 l 415 117 q 372 84 402 84 q 225 46 271 46 q 171 35 199 35 l 163 35 q 79 81 104 35 q 33 125 58 81 q 0 165 7 125 q 24 209 0 180 q 16 239 16 227 q 71 293 16 264 q 155 339 86 308 l 165 353 l 165 355 q 81 437 110 415 q 57 507 66 507 q 33 586 33 533 q 73 754 42 744 q 209 806 113 781 l 217 806 l 228 803 q 363 825 228 820 l 385 825 q 442 784 442 825 q 483 811 463 811 q 513 798 503 805 q 556 830 527 830 l 570 827 q 597 830 584 830 q 637 789 625 830 q 675 768 675 781 q 713 792 692 792 l 719 792 q 754 768 742 792 q 798 735 770 768 q 819 741 808 741 q 863 697 843 741 q 914 629 905 697 l 917 629 q 990 844 953 760 q 1020 857 1010 857 m 2886 836 l 2908 836 q 2987 781 2944 836 q 3035 722 3011 781 l 3049 711 q 3092 776 3049 776 q 3095 779 3092 779 q 3114 776 3106 776 q 3212 803 3168 803 q 3244 795 3225 803 q 3375 827 3320 827 q 3413 784 3413 819 l 3418 784 q 3461 741 3461 779 l 3440 665 q 3459 624 3459 644 q 3448 591 3448 596 q 3453 572 3453 581 q 3418 521 3438 521 l 3418 518 q 3440 480 3432 518 q 3413 431 3436 456 q 3426 385 3426 391 q 3385 304 3412 304 q 3342 258 3385 275 l 3326 255 q 3309 260 3321 255 l 3309 236 q 3312 212 3309 227 q 3301 119 3307 203 q 3261 68 3288 68 q 3234 16 3247 68 q 3193 0 3224 0 q 3155 43 3168 0 q 3098 138 3107 43 q 3041 95 3068 106 q 3011 62 3041 85 q 2965 41 2994 41 q 2911 84 2939 41 l 2908 84 q 2867 71 2880 71 q 2813 117 2844 71 q 2745 198 2772 141 q 2705 269 2745 225 q 2691 328 2691 300 l 2691 407 q 2694 418 2691 413 q 2691 420 2694 420 l 2694 434 q 2688 507 2688 496 q 2691 515 2688 510 l 2688 529 q 2729 692 2706 667 q 2770 727 2734 708 q 2870 833 2770 765 l 2886 836 m 1017 817 q 979 711 1017 804 q 920 491 941 588 q 930 480 924 491 q 898 353 920 471 q 863 231 863 280 l 863 217 l 868 217 q 884 263 878 217 l 890 263 q 857 138 890 253 q 852 87 852 109 q 914 190 900 136 l 928 201 l 930 195 q 925 163 930 189 l 930 163 q 968 190 941 173 q 990 165 975 165 q 1025 244 1008 220 l 1028 244 q 1069 225 1042 231 q 1109 247 1072 225 q 1147 212 1147 247 q 1202 127 1171 127 l 1204 127 q 1213 138 1213 127 q 1207 179 1213 149 l 1210 179 q 1251 141 1232 141 q 1267 152 1253 141 l 1294 152 q 1256 323 1286 214 q 1223 464 1256 383 l 1218 464 q 1204 437 1218 442 q 1199 464 1199 449 q 1204 480 1204 473 l 1204 515 q 1180 616 1204 529 l 1180 629 q 1183 632 1180 632 q 1147 711 1164 684 q 1123 800 1141 800 q 1112 784 1123 792 l 1104 784 l 1099 787 q 1088 773 1099 779 l 1085 773 q 1069 787 1070 787 l 1061 787 q 1044 765 1047 765 l 1039 765 q 1023 817 1023 810 l 1017 817 m 1731 678 q 1714 684 1722 684 l 1712 684 q 1671 526 1688 684 l 1671 488 q 1676 445 1671 456 q 1671 326 1674 437 q 1742 231 1671 271 l 1736 228 l 1720 228 l 1720 222 q 1766 152 1732 189 q 1796 184 1796 172 l 1799 184 q 1831 168 1808 170 q 1861 122 1837 149 l 1864 122 q 1912 179 1912 158 q 1910 187 1912 182 q 1912 212 1912 202 l 1912 220 l 1918 220 q 1931 182 1927 182 l 1934 182 q 2002 288 2002 242 l 1999 301 q 2010 366 2010 329 l 2010 407 q 2016 415 2016 414 l 2016 418 q 1986 431 2016 425 l 1986 434 q 2013 477 2013 449 q 2005 548 2007 545 q 2007 570 2007 563 q 1931 697 2007 663 q 1907 703 1907 697 q 1918 713 1911 703 q 1888 757 1918 722 q 1850 798 1879 798 l 1834 798 q 1750 722 1773 771 q 1731 678 1739 678 m 2789 678 q 2772 684 2780 684 l 2770 684 q 2729 526 2746 684 l 2729 488 q 2734 445 2729 456 q 2729 326 2732 437 q 2799 231 2729 271 l 2794 228 l 2778 228 l 2778 222 q 2824 152 2790 189 q 2854 184 2854 172 l 2856 184 q 2889 168 2866 170 q 2919 122 2895 149 l 2922 122 q 2970 179 2970 158 q 2968 187 2970 182 q 2970 212 2970 202 l 2970 220 l 2976 220 q 2989 182 2985 182 l 2992 182 q 3060 288 3060 242 l 3057 301 q 3068 366 3068 329 l 3068 407 q 3073 415 3073 414 l 3073 418 q 3044 431 3073 425 l 3044 434 q 3071 477 3071 449 q 3063 548 3065 545 q 3065 570 3065 563 q 2989 697 3065 663 q 2965 703 2965 697 q 2976 713 2969 703 q 2946 757 2976 722 q 2908 798 2936 798 l 2892 798 q 2808 722 2831 771 q 2789 678 2797 678 m 518 705 q 486 770 503 716 l 483 770 q 475 741 477 770 q 477 665 477 699 q 461 521 477 564 l 461 518 q 467 453 461 514 l 467 388 q 483 363 483 370 q 467 312 467 337 l 467 296 q 469 288 467 288 l 467 274 l 467 225 q 486 141 477 141 l 507 141 q 513 171 513 166 l 521 171 q 526 146 521 161 l 529 146 q 532 152 529 152 l 548 144 q 556 152 548 148 q 572 90 561 152 q 575 84 575 90 l 581 84 q 613 260 613 183 q 610 263 613 263 l 613 277 l 613 315 q 627 326 614 320 q 640 301 635 301 l 643 301 q 670 350 660 321 l 684 361 l 692 361 l 686 320 q 689 293 689 296 q 686 263 686 269 q 708 130 700 130 l 724 130 q 741 174 729 130 l 746 174 q 768 144 746 144 l 770 144 q 795 182 782 182 q 817 187 802 182 l 817 217 q 833 282 827 246 l 827 342 q 830 391 830 361 q 817 407 827 391 l 836 431 l 836 486 q 838 488 836 488 q 830 567 830 527 l 830 654 q 819 703 830 671 q 787 618 812 703 l 781 616 q 776 632 776 625 l 776 689 l 749 730 q 741 665 743 704 l 735 665 l 735 673 q 716 757 735 726 l 713 757 q 697 694 697 706 l 700 675 l 694 627 l 697 616 q 694 586 694 592 l 697 572 q 694 570 697 570 l 697 556 l 697 518 l 700 505 q 643 480 653 480 q 621 469 634 480 l 618 475 q 621 616 621 572 l 624 621 q 621 632 621 626 l 621 635 q 624 648 621 644 q 600 781 613 743 l 597 792 l 589 792 q 578 760 580 792 l 572 760 q 559 792 572 765 l 556 792 q 526 713 547 788 l 518 705 m 233 760 l 228 760 l 228 765 l 209 765 q 81 692 81 739 q 73 594 73 642 l 73 589 q 79 537 73 559 l 92 537 l 95 551 l 100 551 l 100 548 q 127 448 100 468 q 187 412 144 427 q 225 374 225 378 l 225 372 q 141 288 186 306 q 54 239 113 279 l 54 233 q 79 228 72 228 q 165 263 155 263 l 168 263 l 168 260 q 117 239 159 251 q 38 165 94 222 q 43 160 39 160 l 76 160 q 109 168 102 168 q 73 133 93 144 l 73 127 q 114 117 109 117 q 195 133 131 117 l 206 130 q 334 176 334 164 q 363 239 340 206 q 377 198 369 198 q 401 263 391 208 l 404 263 q 412 217 409 255 q 410 195 410 207 l 410 176 q 453 296 435 203 q 418 407 447 407 q 415 410 418 410 l 418 429 l 418 434 q 320 496 353 496 l 317 496 l 309 491 l 301 491 q 269 545 301 524 q 231 597 232 585 q 290 616 269 616 q 301 629 296 628 q 312 610 307 629 q 374 643 331 610 q 420 694 420 643 q 366 746 419 704 l 366 749 q 404 779 404 773 l 404 781 q 399 787 404 787 l 382 787 q 241 765 241 787 l 233 760 m 2428 787 q 2390 711 2412 773 q 2374 670 2374 688 l 2374 659 q 2376 621 2374 644 q 2352 583 2373 607 l 2352 578 q 2327 491 2352 528 l 2325 491 q 2330 518 2330 515 q 2292 621 2292 606 q 2276 654 2283 654 l 2268 654 q 2241 575 2241 592 q 2249 556 2249 562 q 2222 521 2237 532 q 2178 686 2192 612 q 2146 735 2158 732 l 2143 730 l 2143 722 l 2146 689 q 2119 749 2139 695 l 2102 765 l 2094 765 q 2062 705 2077 705 l 2062 684 l 2064 670 l 2059 670 q 2026 711 2026 697 l 2021 711 l 2021 700 q 2045 534 2021 688 q 2064 543 2054 534 l 2067 537 q 2051 488 2067 533 q 2116 203 2081 328 l 2124 203 q 2127 258 2127 240 l 2127 263 l 2129 263 q 2157 168 2137 263 q 2184 117 2157 117 l 2197 117 l 2195 136 l 2195 160 l 2203 160 q 2233 206 2224 160 q 2254 263 2254 234 l 2254 290 q 2252 301 2254 296 q 2260 328 2260 325 l 2262 328 q 2268 323 2268 328 l 2268 269 q 2289 217 2279 256 q 2333 117 2306 199 l 2338 114 l 2346 114 l 2363 136 q 2374 106 2367 106 q 2409 179 2409 130 q 2431 241 2431 237 l 2431 258 q 2422 277 2431 267 l 2422 279 q 2460 372 2445 295 q 2490 469 2484 420 q 2488 505 2488 492 q 2515 613 2488 574 q 2523 640 2523 627 l 2523 643 q 2512 700 2523 654 l 2512 703 q 2515 716 2512 711 q 2507 781 2507 771 l 2507 787 l 2501 787 q 2447 673 2447 719 l 2441 673 q 2450 741 2445 741 q 2447 749 2447 746 l 2444 749 q 2433 730 2439 749 l 2428 730 l 2428 732 q 2433 784 2428 742 l 2428 787 m 3242 757 l 3212 765 q 3109 735 3184 765 l 3092 738 q 3079 627 3084 720 q 3090 613 3090 621 q 3076 578 3076 596 q 3079 434 3076 536 q 3076 426 3079 431 q 3079 401 3079 411 l 3079 372 q 3090 301 3081 301 l 3087 274 l 3092 225 l 3090 220 q 3098 206 3093 206 l 3103 206 q 3114 274 3114 266 l 3120 274 q 3111 179 3117 186 q 3136 168 3127 168 l 3136 149 q 3149 81 3136 127 l 3155 81 q 3174 163 3174 150 l 3182 163 q 3190 144 3190 163 l 3198 144 q 3223 252 3217 144 l 3225 252 q 3223 260 3223 258 q 3220 323 3223 280 l 3223 342 q 3220 355 3220 347 q 3255 377 3241 363 l 3258 377 q 3274 339 3265 377 l 3280 339 q 3312 382 3299 339 q 3331 401 3331 386 q 3339 437 3339 425 q 3326 472 3333 437 q 3350 518 3326 500 l 3350 532 l 3331 534 q 3258 505 3301 534 l 3255 505 q 3244 507 3249 505 q 3217 496 3221 496 l 3215 502 q 3217 510 3215 505 l 3215 526 q 3217 529 3215 529 q 3215 540 3215 538 q 3239 594 3215 594 q 3269 605 3250 605 q 3331 591 3295 591 q 3339 600 3331 595 l 3358 600 q 3364 616 3358 610 l 3364 621 l 3361 637 q 3372 670 3370 670 l 3342 713 q 3375 787 3375 753 l 3369 787 q 3244 757 3323 787 l 3242 757 m 1430 765 q 1392 770 1406 770 q 1359 754 1362 754 q 1316 770 1352 754 q 1302 689 1310 749 q 1305 651 1305 666 l 1305 591 q 1324 564 1305 578 q 1308 507 1308 548 q 1310 467 1310 473 q 1302 407 1302 434 l 1302 396 q 1305 315 1302 369 l 1310 315 q 1321 334 1316 334 l 1326 312 q 1308 225 1318 286 q 1337 136 1310 220 l 1343 136 l 1356 176 l 1359 176 q 1375 130 1362 176 l 1386 122 l 1397 122 q 1427 155 1400 123 q 1438 141 1430 155 q 1519 176 1519 157 q 1568 258 1525 180 l 1573 260 l 1579 260 l 1573 228 q 1584 209 1580 209 l 1590 209 q 1628 293 1628 250 q 1641 347 1641 323 l 1641 350 q 1633 393 1641 365 l 1663 496 q 1625 605 1663 578 q 1514 770 1597 715 q 1484 779 1493 779 l 1476 779 l 1430 765 m 1468 586 q 1506 513 1506 517 l 1497 477 q 1506 453 1502 453 l 1503 439 l 1503 431 q 1516 407 1503 421 q 1470 345 1516 368 q 1454 453 1461 431 q 1468 502 1459 486 l 1462 583 l 1468 586 m 1267 581 l 1267 572 q 1275 553 1270 553 l 1275 556 q 1270 581 1270 574 l 1267 581 m 1828 575 l 1834 575 q 1872 524 1845 569 l 1869 505 l 1869 477 q 1874 434 1869 446 l 1872 418 q 1883 382 1877 395 q 1842 331 1883 372 q 1823 347 1823 345 l 1823 361 q 1799 401 1823 401 l 1790 401 l 1790 404 q 1815 426 1815 422 q 1807 526 1815 444 q 1828 575 1828 555 m 2886 575 l 2892 575 q 2930 524 2903 569 l 2927 505 l 2927 477 q 2932 434 2927 446 l 2930 418 q 2941 382 2935 395 q 2900 331 2941 372 q 2881 347 2881 345 l 2881 361 q 2856 401 2881 401 l 2848 401 l 2848 404 q 2873 426 2873 422 q 2865 526 2873 444 q 2886 575 2886 555 m 363 529 l 361 529 q 350 532 355 529 l 347 532 l 347 529 q 426 480 373 523 l 426 483 q 420 513 426 490 q 429 553 429 541 q 363 529 380 529 m 1072 488 l 1077 488 l 1077 486 l 1093 399 l 1093 385 l 1090 380 q 1080 388 1080 384 l 1050 382 q 1047 385 1050 385 l 1050 396 q 1044 420 1050 400 q 1066 472 1066 444 q 1072 488 1072 472 m 5811 857 q 5849 825 5849 847 q 5852 827 5852 825 q 5879 822 5872 822 q 5920 838 5903 838 q 5966 795 5946 838 q 6023 692 6023 785 q 6055 605 6055 610 l 6058 605 q 6061 635 6061 629 q 6058 694 6061 654 q 6093 803 6069 803 q 6107 806 6098 806 l 6112 806 q 6150 795 6124 806 q 6186 808 6175 808 q 6229 806 6225 806 q 6275 819 6257 819 q 6465 673 6335 819 q 6522 770 6465 741 q 6641 806 6621 806 l 6652 803 q 6788 825 6652 820 l 6809 825 q 6866 789 6860 825 q 6907 768 6866 783 q 6915 738 6915 747 q 6902 700 6915 724 q 6932 654 6932 675 q 6894 575 6923 575 q 6826 540 6858 559 q 6788 529 6796 529 l 6785 529 q 6774 532 6779 529 l 6772 532 l 6772 529 q 6885 448 6800 525 q 6934 382 6921 427 q 6964 252 6964 321 q 6883 92 6934 92 q 6847 117 6847 98 l 6839 117 q 6796 84 6826 84 q 6649 46 6696 46 q 6595 35 6624 35 l 6587 35 q 6506 79 6527 35 q 6462 114 6483 84 q 6443 130 6462 126 l 6430 127 l 6427 127 l 6408 130 q 6343 73 6390 91 q 6253 43 6272 58 q 6232 38 6243 38 q 6194 54 6211 38 l 6180 52 q 6148 71 6148 58 q 6126 65 6136 71 l 6120 68 q 6080 57 6088 57 l 6080 60 q 6045 43 6063 49 q 5982 81 5982 57 q 5944 109 5979 87 q 5925 146 5925 138 q 5909 144 5923 146 q 5879 149 5902 144 q 5836 84 5868 84 l 5822 84 q 5800 90 5819 84 q 5749 52 5761 79 q 5686 3 5722 3 q 5648 49 5654 3 l 5643 46 q 5629 52 5629 46 q 5591 41 5609 41 q 5551 57 5554 57 q 5526 52 5530 52 q 5472 81 5472 62 q 5391 41 5410 41 l 5377 41 q 5290 90 5301 41 q 5244 127 5267 90 q 5228 130 5230 130 q 5163 73 5210 91 q 5073 43 5092 58 q 5052 38 5063 38 q 5014 54 5031 38 l 5000 52 q 4954 95 4970 52 q 4886 233 4907 95 l 4894 288 q 4875 407 4878 288 l 4878 407 l 4875 412 q 4886 477 4886 473 l 4883 494 q 4889 559 4883 530 q 4878 608 4881 578 q 4881 637 4881 626 q 4878 694 4881 654 q 4913 803 4889 803 q 4927 806 4918 806 l 4932 806 q 4970 795 4944 806 q 5006 808 4995 808 q 5049 806 5045 806 q 5095 819 5077 819 q 5252 711 5144 819 q 5296 776 5263 776 l 5307 776 q 5339 770 5337 770 q 5450 808 5392 795 q 5480 800 5471 800 q 5556 811 5505 808 q 5600 830 5577 825 q 5676 781 5648 830 q 5722 724 5722 768 q 5703 648 5703 669 l 5703 624 l 5705 624 q 5781 844 5746 764 q 5811 857 5802 857 m 3939 854 q 3991 811 3962 854 q 4024 798 4011 807 q 4067 830 4038 830 l 4081 827 q 4108 830 4095 830 q 4148 789 4135 830 q 4186 768 4186 781 q 4224 792 4203 792 l 4230 792 q 4265 768 4253 792 q 4308 735 4281 768 q 4330 741 4319 741 l 4338 741 q 4384 776 4338 772 q 4417 770 4414 770 q 4528 808 4470 795 q 4558 800 4548 800 q 4634 811 4583 808 q 4677 830 4654 825 q 4753 781 4726 830 q 4799 724 4799 768 q 4778 594 4778 671 q 4748 524 4761 524 l 4745 524 q 4753 488 4745 517 q 4737 431 4737 444 l 4748 380 l 4748 377 q 4718 334 4748 351 q 4770 279 4770 320 q 4772 263 4770 267 l 4753 212 q 4759 190 4759 195 q 4732 84 4732 98 q 4669 41 4714 41 q 4628 57 4631 57 q 4604 52 4608 52 q 4550 81 4550 62 q 4468 41 4488 41 l 4455 41 q 4368 90 4379 41 l 4365 90 q 4314 57 4365 68 l 4279 43 q 4224 90 4224 56 q 4197 100 4205 95 l 4194 100 q 4135 0 4179 0 q 4094 38 4107 0 q 4024 65 4094 45 q 3994 106 4009 73 q 3942 190 3949 106 q 3937 241 3942 212 q 3939 296 3939 272 l 3939 326 q 3950 363 3939 336 q 3939 391 3943 363 l 3939 439 q 3931 513 3939 481 q 3939 548 3939 543 l 3920 548 q 3926 515 3926 526 q 3918 496 3923 496 q 3926 472 3926 479 q 3920 374 3926 423 q 3929 320 3929 338 q 3926 304 3926 306 q 3931 285 3928 285 l 3929 271 l 3929 263 q 3931 252 3929 257 q 3869 76 3899 76 q 3847 46 3855 76 q 3815 33 3829 33 q 3793 35 3813 33 q 3763 19 3793 28 q 3712 65 3734 19 q 3633 184 3672 65 q 3644 222 3633 188 l 3638 250 q 3641 296 3641 287 q 3636 369 3636 348 l 3636 382 q 3649 426 3636 410 q 3636 488 3636 444 l 3636 496 l 3630 494 q 3587 540 3594 494 l 3581 540 q 3541 581 3541 545 q 3552 627 3552 623 q 3535 656 3543 627 l 3538 675 q 3530 708 3530 700 q 3636 798 3530 755 q 3682 811 3640 808 l 3712 811 l 3728 808 q 3763 822 3757 822 q 3812 819 3807 819 q 3880 841 3833 819 q 3939 854 3927 854 m 5809 817 q 5771 711 5809 804 q 5711 491 5733 588 q 5722 480 5715 491 q 5689 353 5711 471 q 5654 231 5654 280 l 5654 217 l 5659 217 q 5676 263 5669 217 l 5681 263 q 5648 138 5681 253 q 5643 87 5643 109 q 5705 190 5691 136 l 5719 201 l 5722 195 q 5716 163 5722 189 l 5722 163 q 5760 190 5732 173 q 5781 165 5766 165 q 5817 244 5800 220 l 5819 244 q 5860 225 5834 231 q 5901 247 5863 225 q 5939 212 5939 247 q 5993 127 5962 127 l 5996 127 q 6004 138 6004 127 q 5998 179 6004 149 l 6001 179 q 6042 141 6023 141 q 6058 152 6045 141 l 6085 152 q 6047 323 6077 214 q 6015 464 6047 383 l 6009 464 q 5996 437 6009 442 q 5990 464 5990 449 q 5996 480 5996 473 l 5996 515 q 5971 616 5996 529 l 5971 629 q 5974 632 5971 632 q 5939 711 5956 684 q 5914 800 5933 800 q 5903 784 5914 792 l 5895 784 l 5890 787 q 5879 773 5890 779 l 5876 773 l 5860 787 l 5852 787 q 5836 765 5838 765 l 5830 765 q 5814 817 5814 810 l 5809 817 m 3842 781 l 3812 781 q 3801 779 3806 781 q 3766 784 3786 784 q 3736 768 3736 770 q 3690 773 3714 773 q 3584 730 3657 773 q 3568 705 3568 713 q 3581 686 3568 703 q 3576 651 3576 662 q 3606 635 3606 639 q 3579 578 3579 601 q 3690 602 3613 578 l 3690 597 q 3676 589 3676 595 l 3676 572 q 3674 551 3676 562 q 3676 543 3674 548 q 3674 486 3674 507 l 3674 469 q 3693 423 3674 465 l 3693 407 q 3674 396 3693 404 l 3676 363 l 3676 361 q 3674 336 3676 351 q 3679 307 3679 326 l 3679 252 q 3684 217 3679 241 q 3674 187 3674 195 l 3674 184 q 3717 103 3674 155 l 3739 244 l 3736 255 q 3739 263 3739 260 l 3744 263 l 3744 236 q 3739 193 3739 197 q 3769 114 3764 114 q 3796 160 3772 136 l 3801 157 l 3812 157 q 3842 320 3842 267 q 3839 353 3842 334 l 3842 366 q 3834 412 3838 397 l 3839 521 q 3815 540 3831 524 q 3839 564 3839 556 q 3834 591 3834 589 q 3845 629 3834 629 q 3869 632 3854 629 q 3893 629 3879 629 q 3953 656 3893 638 l 3953 670 q 3961 716 3953 681 q 3939 754 3939 736 l 3939 762 q 3953 798 3939 781 q 3939 814 3950 809 l 3934 814 q 3855 784 3855 800 l 3842 781 m 4029 705 q 3996 770 4013 716 l 3994 770 q 3986 741 3988 770 q 3988 665 3988 699 q 3972 521 3988 564 l 3972 518 q 3977 453 3977 457 l 3977 388 q 3994 363 3994 370 q 3977 312 3977 337 l 3977 296 q 3980 288 3977 288 l 3977 274 l 3977 225 q 3996 141 3988 141 l 4018 141 q 4024 171 4024 166 l 4032 171 q 4037 146 4032 161 l 4040 146 q 4043 152 4040 152 l 4059 144 q 4067 152 4059 148 q 4083 90 4072 152 q 4086 84 4086 90 l 4091 84 q 4124 260 4124 183 q 4121 263 4124 263 l 4124 277 l 4124 315 q 4138 326 4125 320 q 4151 301 4146 301 l 4154 301 q 4181 350 4171 321 l 4194 361 l 4203 361 l 4197 320 q 4200 293 4200 296 q 4197 263 4197 269 q 4219 130 4211 130 l 4235 130 q 4251 174 4240 130 l 4257 174 q 4279 144 4257 144 l 4281 144 q 4306 182 4293 182 q 4327 187 4313 182 l 4327 217 q 4344 282 4338 246 l 4338 342 q 4341 391 4341 361 q 4327 407 4338 391 l 4346 431 l 4346 486 q 4349 488 4346 488 q 4341 567 4341 527 l 4341 654 q 4330 703 4341 671 q 4298 618 4323 703 l 4292 616 q 4287 632 4287 625 l 4287 689 l 4260 730 q 4251 665 4254 704 l 4246 665 l 4246 673 q 4227 757 4246 726 l 4224 757 q 4208 694 4208 706 l 4211 675 l 4205 627 l 4208 616 q 4205 586 4205 592 l 4208 572 q 4205 570 4208 570 l 4208 556 l 4208 518 l 4211 505 q 4154 480 4164 480 q 4132 469 4145 480 l 4129 475 q 4132 616 4132 572 l 4135 621 q 4132 632 4132 626 l 4132 635 q 4135 648 4132 644 q 4110 781 4124 743 l 4108 792 l 4100 792 q 4089 760 4091 792 l 4083 760 q 4070 792 4083 765 l 4067 792 q 4037 713 4058 788 l 4029 705 m 4620 768 l 4588 768 q 4553 757 4585 768 q 4525 768 4553 764 q 4420 732 4512 768 q 4376 738 4411 732 q 4363 627 4363 701 l 4368 608 q 4363 551 4363 574 l 4363 510 q 4376 464 4363 503 q 4363 399 4363 439 l 4363 277 q 4384 233 4364 233 l 4384 228 q 4368 163 4376 228 q 4363 136 4363 163 q 4417 122 4363 125 q 4463 149 4428 122 q 4525 168 4496 168 q 4547 136 4537 138 l 4561 136 q 4585 171 4563 136 q 4615 127 4589 171 l 4628 125 q 4661 209 4650 125 q 4672 233 4665 209 q 4664 271 4664 258 q 4683 301 4666 271 q 4669 336 4683 336 l 4664 336 q 4642 334 4657 336 q 4618 336 4627 336 q 4539 304 4572 311 q 4534 320 4534 313 l 4534 350 q 4561 385 4534 369 q 4601 380 4600 380 q 4639 412 4620 412 q 4661 418 4647 412 l 4661 423 q 4650 461 4661 431 l 4650 488 q 4664 534 4664 526 l 4664 540 q 4620 553 4664 551 l 4618 553 q 4550 526 4607 553 q 4536 524 4545 524 q 4525 534 4532 524 q 4539 559 4539 549 l 4539 581 q 4591 616 4540 584 q 4593 618 4591 618 q 4650 616 4628 616 q 4677 600 4658 600 q 4699 730 4686 600 q 4710 779 4710 760 q 4683 789 4710 786 l 4669 789 q 4620 768 4639 768 m 5543 768 l 5510 768 q 5475 757 5478 757 q 5448 768 5475 764 q 5342 732 5434 768 q 5299 738 5333 732 q 5285 627 5285 701 l 5290 608 q 5285 551 5285 574 l 5285 510 q 5299 464 5285 503 q 5285 399 5285 439 l 5285 277 q 5307 233 5286 233 l 5307 228 q 5290 163 5298 228 q 5285 136 5286 163 q 5339 122 5285 125 q 5385 149 5351 122 q 5448 168 5418 168 q 5469 136 5459 138 l 5483 136 q 5507 171 5486 136 q 5537 127 5511 171 l 5551 125 q 5583 209 5573 125 q 5594 233 5587 209 q 5586 271 5586 258 q 5605 301 5589 271 q 5591 336 5605 336 l 5586 336 q 5564 334 5579 336 q 5540 336 5549 336 q 5461 304 5494 311 q 5456 320 5456 313 l 5456 350 q 5483 385 5456 369 q 5524 380 5522 380 q 5562 412 5542 412 q 5583 418 5569 412 l 5583 423 q 5573 461 5583 431 l 5573 488 q 5586 534 5586 526 l 5586 540 q 5543 553 5586 551 l 5540 553 q 5472 526 5529 553 q 5459 524 5467 524 q 5448 534 5455 524 q 5461 559 5461 549 l 5461 581 q 5513 616 5462 584 q 5516 618 5513 618 q 5573 616 5551 616 q 5600 600 5581 600 q 5621 730 5608 600 q 5632 779 5632 760 q 5605 789 5632 786 l 5591 789 q 5543 768 5562 768 m 6658 760 l 6652 760 l 6652 765 l 6633 765 q 6506 692 6506 739 q 6498 594 6498 642 l 6498 589 q 6503 537 6498 559 l 6517 537 l 6519 551 l 6525 551 l 6525 548 q 6552 448 6525 468 q 6611 412 6569 427 q 6649 374 6649 378 l 6649 372 q 6565 288 6611 306 q 6479 239 6538 279 l 6479 233 q 6503 228 6496 228 q 6590 263 6579 263 l 6592 263 l 6592 260 q 6541 239 6583 251 q 6462 165 6519 222 q 6468 160 6463 160 l 6500 160 q 6533 168 6526 168 q 6498 133 6517 144 l 6498 127 q 6538 117 6533 117 q 6620 133 6555 117 l 6630 130 q 6758 176 6758 164 q 6788 239 6765 206 q 6801 198 6793 198 q 6826 263 6815 208 l 6828 263 q 6837 217 6833 255 q 6834 195 6834 207 l 6834 176 q 6877 296 6860 203 q 6842 407 6871 407 q 6839 410 6842 410 l 6842 429 l 6842 434 q 6744 496 6778 496 l 6742 496 l 6734 491 l 6725 491 q 6693 545 6725 524 q 6655 597 6656 585 q 6715 616 6693 616 q 6725 629 6720 628 q 6736 610 6731 629 q 6799 643 6755 610 q 6845 694 6845 643 q 6791 746 6843 704 l 6791 749 q 6828 779 6828 773 l 6828 781 q 6823 787 6828 787 l 6807 787 q 6666 765 6666 787 l 6658 760 m 5044 765 q 5006 770 5020 770 q 4973 754 4976 754 q 4930 770 4966 754 q 4916 689 4924 749 q 4919 651 4919 666 l 4919 591 q 4938 564 4919 578 q 4921 507 4921 548 q 4924 467 4924 473 q 4916 407 4916 434 l 4916 396 q 4919 315 4916 369 l 4924 315 q 4935 334 4930 334 l 4940 312 q 4921 225 4932 286 q 4951 136 4924 220 l 4957 136 l 4970 176 l 4973 176 q 4989 130 4976 176 l 5000 122 l 5011 122 q 5041 155 5014 123 q 5052 141 5044 155 q 5133 176 5133 157 q 5182 258 5138 180 l 5187 260 l 5193 260 l 5187 228 q 5198 209 5194 209 l 5204 209 q 5242 293 5242 250 q 5255 347 5255 323 l 5255 350 q 5247 393 5255 365 l 5277 496 q 5239 605 5277 578 q 5128 770 5211 715 q 5098 779 5107 779 l 5090 779 l 5044 765 m 6224 765 q 6186 770 6200 770 q 6153 754 6156 754 q 6110 770 6146 754 q 6096 689 6104 749 q 6099 651 6099 666 l 6099 591 q 6118 564 6099 578 q 6101 507 6101 548 q 6104 467 6104 473 q 6096 407 6096 434 l 6096 396 q 6099 315 6096 369 l 6104 315 q 6115 334 6110 334 l 6120 312 q 6101 225 6112 286 q 6131 136 6104 220 l 6137 136 l 6150 176 l 6153 176 q 6169 130 6156 176 l 6180 122 l 6191 122 q 6221 155 6194 123 q 6232 141 6224 155 q 6313 176 6313 157 q 6362 258 6318 180 l 6367 260 l 6373 260 l 6367 228 q 6378 209 6374 209 l 6384 209 q 6422 293 6422 250 q 6435 347 6435 323 l 6435 350 q 6427 393 6435 365 l 6457 496 q 6419 605 6457 578 q 6308 770 6391 715 q 6278 779 6287 779 l 6270 779 l 6224 765 m 6058 602 l 6058 597 l 6061 597 l 6061 602 l 6058 602 m 5082 586 q 5119 513 5119 517 l 5111 477 q 5119 453 5116 453 l 5117 439 l 5117 431 q 5130 407 5117 421 q 5084 345 5130 368 q 5068 453 5075 431 q 5082 502 5073 486 l 5076 583 l 5082 586 m 6058 583 l 6058 578 q 6064 545 6058 575 l 6066 545 l 6069 559 q 6058 583 6062 583 m 6262 586 q 6300 513 6300 517 l 6291 477 q 6300 453 6296 453 l 6297 439 l 6297 431 q 6310 407 6297 421 q 6264 345 6310 368 q 6248 453 6255 431 q 6262 502 6253 486 l 6256 583 l 6262 586 m 5667 524 l 5670 505 q 5678 526 5678 507 l 5676 526 q 5667 524 5670 524 m 5863 488 l 5868 488 l 5868 486 l 5884 399 l 5884 385 l 5882 380 q 5871 388 5871 384 l 5841 382 q 5838 385 5841 385 l 5841 396 q 5836 420 5841 400 q 5857 472 5857 444 q 5863 488 5863 472 m 5673 483 q 5659 434 5659 441 l 5659 423 q 5665 418 5660 418 q 5678 475 5665 436 q 5676 483 5676 480 l 5673 483 m 6533 412 l 6514 347 q 6522 315 6522 323 q 6590 353 6590 337 l 6590 355 q 6533 412 6590 359 z "}}}
